<svg version="1.1" xmlns="http://www.w3.org/2000/svg" xmlns:xlink="http://www.w3.org/1999/xlink" width="631.000000pt" height="500.000000pt" viewBox="0,0,256,202.84375"><g transform=""><g fill="#000000" fill-rule="nonzero" stroke="none" stroke-width="1" stroke-linecap="butt" stroke-linejoin="miter" stroke-miterlimit="10" stroke-dasharray="" stroke-dashoffset="0" font-family="none" font-weight="none" font-size="none" text-anchor="none" style="mix-blend-mode: normal"><path d="M0,202.84375v-202.84375h256v202.84375z" id="bgRectangle"></path></g><g fill="#edff03" fill-rule="nonzero" stroke="#edff03" stroke-width="8" stroke-linecap="butt" stroke-linejoin="round" stroke-miterlimit="10" stroke-dasharray="" stroke-dashoffset="0" font-family="none" font-weight="none" font-size="none" text-anchor="none" style="mix-blend-mode: normal"><path transform="translate(-8.69671,2.22695) scale(0.04057,0.04057)" d="M680,3220c0,-660 2,-1200 5,-1200c3,0 79,20 168,44c321,88 941,236 1187,283l45,9l3,1032l2,1032h-1410zM2950,3470c0,-522 3,-950 6,-950c3,0 90,14 192,30c254,41 608,92 897,129c132,17 255,33 273,36l32,6l-2,847l-3,847l-697,3l-698,2zM5058,3023c-27,-14 -48,-29 -48,-33c0,-4 18,-12 39,-18c23,-7 54,-29 75,-52c36,-40 44,-64 26,-75c-6,-4 -20,-25 -32,-48c-19,-38 -20,-51 -14,-162c8,-145 20,-188 64,-232c25,-26 32,-39 26,-56c-10,-36 -54,-88 -91,-110l-35,-20l25,-13c44,-23 111,-34 148,-24c44,12 92,62 118,121l21,46l91,7c184,14 459,108 533,182c61,61 71,130 30,212c-30,61 -60,81 -174,117c-124,38 -283,58 -415,52l-110,-5l-37,52c-62,89 -148,110 -240,59zM4282,2169c-129,-38 -706,-219 -989,-311l-343,-112v-1276l698,2l697,3l3,853c2,807 1,852 -15,851c-10,0 -33,-5 -51,-10zM2050,1433c-530,-194 -924,-351 -1227,-490l-143,-65v-408h1410v485c0,505 1,493 -40,478z" id="strokeMainSVG"></path></g><g fill="#ffffff" fill-rule="nonzero" stroke="none" stroke-width="1" stroke-linecap="butt" stroke-linejoin="miter" stroke-miterlimit="10" stroke-dasharray="" stroke-dashoffset="0" font-family="none" font-weight="none" font-size="none" text-anchor="none" style="mix-blend-mode: normal"><g transform="translate(-8.69671,-2.23581) scale(0.40571,0.40571)"><g transform="translate(0,500) scale(0.1,-0.1)"><path d="M680,3220c0,-660 2,-1200 5,-1200c3,0 79,20 168,44c321,88 941,236 1187,283l45,9l3,1032l2,1032h-705h-705z"></path><path d="M2950,3470c0,-522 3,-950 6,-950c3,0 90,14 192,30c254,41 608,92 897,129c132,17 255,33 273,36l32,6l-2,847l-3,847l-697,3l-698,2z"></path><path d="M5058,3023c-27,-14 -48,-29 -48,-33c0,-4 18,-12 39,-18c23,-7 54,-29 75,-52c36,-40 44,-64 26,-75c-6,-4 -20,-25 -32,-48c-19,-38 -20,-51 -14,-162c8,-145 20,-188 64,-232c25,-26 32,-39 26,-56c-10,-36 -54,-88 -91,-110l-35,-20l25,-13c44,-23 111,-34 148,-24c44,12 92,62 118,121l21,46l91,7c184,14 459,108 533,182c61,61 71,130 30,212c-30,61 -60,81 -174,117c-124,38 -283,58 -415,52l-110,-5l-37,52c-62,89 -148,110 -240,59z"></path><path d="M4282,2169c-129,-38 -706,-219 -989,-311l-343,-112v-638v-638l698,2l697,3l3,853c2,807 1,852 -15,851c-10,0 -33,-5 -51,-10z"></path><path d="M2050,1433c-530,-194 -924,-351 -1227,-490l-143,-65v-204v-204h705h705v485c0,505 1,493 -40,478z"></path></g></g></g></g></svg>