<svg version="1.1" xmlns="http://www.w3.org/2000/svg" xmlns:xlink="http://www.w3.org/1999/xlink" width="360.000000pt" height="360.000000pt" viewBox="0,0,256,256"><g fill="#000000" fill-rule="nonzero" stroke="none" stroke-width="1" stroke-linecap="butt" stroke-linejoin="miter" stroke-miterlimit="10" stroke-dasharray="" stroke-dashoffset="0" font-family="none" font-weight="none" font-size="none" text-anchor="none" style="mix-blend-mode: normal"><path d="M0,256v-256h256v256z" id="bgRectangle"></path></g><g fill="#ffffff" fill-rule="nonzero" stroke="none" stroke-width="1" stroke-linecap="butt" stroke-linejoin="miter" stroke-miterlimit="10" stroke-dasharray="" stroke-dashoffset="0" font-family="none" font-weight="none" font-size="none" text-anchor="none" style="mix-blend-mode: normal"><g transform="translate(0.06206,0.77318) scale(0.71111,0.71111)"><g transform="translate(0,360) scale(0.1,-0.1)"><path d="M388,2678c-19,-95 -35,-174 -34,-175c1,-1 29,35 63,80c33,46 98,124 142,175l82,92h-109h-109z"></path><path d="M650,2753c-105,-109 -213,-250 -289,-377l-53,-86l-104,-508c-103,-496 -105,-508 -94,-575c14,-93 72,-265 119,-357l38,-75l152,-2c83,-2 151,-1 151,2c0,2 -21,35 -46,72c-286,426 -254,1016 83,1528c89,135 169,229 303,358l121,117h-144h-145z"></path><path d="M1070,2788c-356,-291 -609,-713 -661,-1106c-18,-134 -7,-346 25,-467c31,-121 116,-297 183,-380l49,-60l179,-1l180,-2l-35,27c-339,256 -464,699 -319,1135c119,358 407,693 754,878l70,37l-175,1h-175z"></path><path d="M1615,2826c-186,-72 -352,-182 -505,-336l-115,-115l85,-3l85,-3l55,51c168,156 366,264 560,306l78,17l6,38c3,20 9,44 12,53c5,14 -7,16 -97,16c-84,-1 -116,-5 -164,-24z"></path><path d="M2162,2798c-5,-29 -9,-54 -7,-56c2,-2 29,-10 62,-18c32,-9 95,-33 141,-56c148,-73 298,-238 354,-392l23,-61l13,65c19,94 17,90 66,90h45l-16,37c-61,148 -223,320 -371,397l-90,46h-105h-104z"></path><path d="M2586,2818c70,-45 203,-181 252,-258c23,-35 54,-93 69,-127l27,-63h118h117l-28,83c-46,134 -122,270 -203,362l-30,35h-186h-185z"></path><path d="M3017,2828c71,-78 167,-263 203,-393l17,-60l127,-3c118,-2 127,-1 122,15c-2,10 -10,45 -17,78c-17,89 -55,199 -101,298l-41,87h-165h-165z"></path><path d="M3434,2783c34,-69 86,-214 86,-239c0,-8 4,-14 8,-14c4,0 21,66 36,148c16,81 31,153 34,160c3,9 -20,12 -96,12h-101z"></path><path d="M2120,2597c-7,-39 -12,-74 -12,-76c1,-2 25,-12 53,-22c236,-84 392,-327 376,-590c-7,-113 -29,-195 -82,-304c-76,-158 -202,-301 -354,-403c-80,-53 -227,-121 -262,-122c-9,0 -21,-6 -26,-12c-11,-15 -34,-121 -27,-127c10,-11 167,43 260,89c347,170 601,515 646,875c27,220 -46,427 -204,582c-74,73 -157,125 -242,152c-120,38 -111,41 -126,-42z"></path><path d="M1710,2631c-143,-46 -354,-171 -423,-248c-17,-20 -16,-20 70,-21c80,-2 90,1 132,27c74,47 188,99 261,117l68,18l6,43c3,24 8,54 12,68c5,21 3,25 -17,25c-13,-1 -62,-13 -109,-29z"></path><path d="M1720,2426c-68,-24 -130,-53 -130,-61c0,-3 43,-5 95,-5h95l6,28c3,15 8,35 11,45c5,21 3,21 -77,-7z"></path><path d="M2085,2428c-2,-13 -9,-42 -14,-65l-9,-42l55,-26c100,-50 185,-153 218,-269c25,-87 17,-229 -19,-316c-47,-117 -137,-232 -251,-323c-49,-39 -177,-107 -202,-107c-6,0 -17,-26 -23,-57c-7,-32 -15,-62 -18,-67c-10,-18 55,5 153,54c122,60 224,143 311,253c156,197 215,419 165,616c-11,46 -33,105 -48,130c-44,75 -137,165 -206,199c-94,45 -105,47 -112,20z"></path><path d="M928,2283c-292,-407 -328,-880 -95,-1223c46,-67 145,-167 207,-210c106,-72 121,-76 272,-78c75,-1 139,1 141,6c2,4 7,23 11,43l6,36l-67,16c-38,9 -110,38 -162,63c-77,38 -110,62 -176,128c-45,44 -98,108 -117,141l-34,60h-80c-45,1 -78,5 -78,10c1,6 14,76 29,158c20,103 32,147 42,147c9,0 13,17 13,63c0,108 40,263 107,415c3,7 -2,12 -11,12c-21,0 -20,13 8,145c13,61 23,111 21,113c-1,2 -18,-19 -37,-45z"></path><path d="M2046,2233c-3,-10 -8,-35 -12,-56c-6,-35 -4,-40 39,-78c112,-98 135,-266 58,-418c-30,-59 -115,-145 -185,-190c-57,-36 -64,-43 -70,-82c-4,-23 -4,-44 -1,-47c9,-9 85,32 152,81c172,128 282,351 253,516c-20,117 -86,214 -179,264c-45,25 -50,26 -55,10z"></path><path d="M1002,2008c-60,-127 -92,-251 -92,-360v-68h74h73l6,103c7,118 33,220 82,318l35,69h-74h-75z"></path><path d="M1236,2028c-67,-114 -106,-251 -106,-370v-78h63h62l-3,96c-3,76 1,110 18,167c25,81 51,137 86,184c13,17 24,34 24,37c0,3 -27,6 -60,6c-59,0 -59,0 -84,-42z"></path><path d="M1425,2006c-82,-116 -129,-276 -108,-376l9,-45l61,-3l61,-3l-15,43c-26,74 -14,183 30,271c20,40 59,96 86,125l50,52h-64h-64z"></path><path d="M2006,2040c-21,-86 -96,-475 -94,-482c5,-14 82,51 123,103c93,120 99,267 14,362c-37,42 -37,42 -43,17z"></path><path d="M1622,1995c-81,-75 -124,-157 -130,-250c-4,-58 0,-81 17,-119c20,-45 22,-47 58,-44l37,3l41,205c23,113 44,217 48,233c11,40 -4,34 -71,-28z"></path><path d="M2765,1933c-15,-140 -50,-267 -104,-375l-28,-58h77h77l27,60c54,120 106,316 106,399v31h-74h-75z"></path><path d="M2985,1923c-10,-94 -59,-279 -94,-358l-30,-65h109h108l32,88c33,90 73,258 84,350l7,52h-105h-104z"></path><path d="M3266,1974c-3,-9 -6,-29 -6,-46c0,-52 -39,-226 -74,-329l-34,-99h78h79l10,53c6,28 28,139 50,245l38,192h-67c-53,0 -69,-4 -74,-16z"></path><path d="M2492,1300c-155,-190 -363,-332 -590,-404c-46,-14 -94,-26 -107,-26c-29,0 -32,-5 -41,-58l-6,-40l123,1l124,2l115,57c121,59 246,143 343,231l59,53l28,134c16,74 28,136 27,137c-1,1 -35,-39 -75,-87z"></path><path d="M1000,1258c0,-16 58,-94 106,-142c82,-82 186,-142 297,-172c83,-22 83,-22 97,52c7,37 9,69 4,74c-5,4 -32,15 -60,24c-61,20 -129,62 -203,124l-54,46l-93,2c-56,1 -94,-2 -94,-8z"></path><path d="M1300,1259c0,-23 211,-132 226,-116c8,7 23,76 24,103c0,19 -5,20 -125,20c-69,0 -125,-3 -125,-7z"></path><path d="M61,1079c-1,-3 -14,-71 -31,-150c-16,-79 -30,-146 -30,-149c0,-3 43,-6 95,-7c53,0 94,2 92,6c-25,45 -76,163 -98,226c-15,44 -28,77 -28,74z"></path><path d="M2440,961c-55,-46 -180,-131 -237,-160c-24,-12 -43,-23 -43,-25c0,-2 63,-4 140,-4c136,-1 140,0 145,21c23,100 43,202 42,204c-2,1 -23,-15 -47,-36z"></path></g></g></g></svg>