<svg version="1.1" xmlns="http://www.w3.org/2000/svg" xmlns:xlink="http://www.w3.org/1999/xlink" width="900.000000pt" height="900.000000pt" viewBox="0,0,256,256"><g fill="#00a6f6" fill-rule="nonzero" stroke="none" stroke-width="1" stroke-linecap="butt" stroke-linejoin="miter" stroke-miterlimit="10" stroke-dasharray="" stroke-dashoffset="0" font-family="none" font-weight="none" font-size="none" text-anchor="none" style="mix-blend-mode: normal"><g transform="translate(0,0.06175) scale(0.28444,0.28444)"><g transform="translate(0,900) scale(0.1,-0.1)"><path d="M4495,7954c-10,-3 -1118,-346 -1465,-454c-1182,-368 -1576,-492 -1582,-498c-11,-11 -34,-200 -50,-397c-16,-207 -16,-929 0,-1135c17,-204 47,-471 72,-628c228,-1429 833,-2509 1787,-3190c324,-232 733,-439 1117,-566c60,-20 117,-36 126,-36c24,0 211,63 350,117c146,57 448,203 577,278c1130,664 1836,1792 2094,3345c32,195 62,446 81,680c16,209 16,929 0,1135c-17,207 -39,386 -49,396c-7,7 -485,157 -1583,499c-85,26 -425,132 -755,234c-330,103 -625,195 -655,205c-30,10 -59,17 -65,15zM5235,7620c391,-122 845,-263 1010,-315c165,-52 505,-157 755,-235c250,-78 458,-145 461,-148c8,-8 26,-176 39,-362c35,-509 13,-1117 -60,-1618c-138,-944 -447,-1748 -915,-2377c-372,-501 -868,-908 -1440,-1181c-221,-105 -531,-224 -585,-224c-64,0 -425,143 -655,260c-434,220 -755,458 -1092,813c-441,464 -788,1098 -1007,1837c-219,742 -308,1690 -240,2555c8,105 18,215 22,245l7,55l700,218c385,120 1051,328 1480,462c429,134 787,242 795,239c8,-2 335,-103 725,-224z"></path><path d="M4435,7639c-33,-10 -77,-24 -98,-29c-33,-10 -36,-13 -23,-26c18,-18 11,-40 -14,-47c-20,-5 -40,10 -40,30c0,16 -15,15 -60,-3c-19,-8 -25,-12 -12,-10c12,2 22,1 22,-4c0,-12 -37,-19 -48,-8c-9,9 -212,-46 -212,-58c0,-3 8,-4 18,-2c24,4 30,-47 6,-56c-22,-9 -47,13 -40,37c4,15 1,18 -17,13c-12,-3 -25,-6 -29,-6c-5,0 -8,-9 -8,-19c0,-23 -26,-34 -48,-21c-13,7 -13,9 -3,10c8,0 12,3 9,6c-3,3 -54,-9 -113,-27c-83,-26 -102,-35 -86,-41c24,-8 28,-40 7,-57c-23,-19 -48,-2 -44,30c5,33 3,33 -41,18c-23,-8 -29,-14 -20,-20c10,-6 10,-10 0,-23c-17,-20 -26,-20 -46,0c-15,15 -48,7 -438,-115c-609,-189 -624,-194 -620,-208c6,-18 -24,-28 -41,-14c-11,10 -37,5 -115,-19c-91,-29 -129,-46 -83,-38c23,4 30,-49 8,-58c-22,-8 -48,15 -43,38c3,10 2,18 -2,18c-20,0 -71,-23 -71,-32c0,-6 6,-5 15,2c13,11 14,10 9,-3c-7,-18 -32,-30 -46,-21c-6,4 -5,10 3,16c22,15 -31,2 -179,-44c-73,-23 -127,-45 -121,-49c18,-10 3,-39 -20,-39c-11,0 -24,8 -30,17c-5,10 -12,16 -15,13c-10,-11 -37,-286 -42,-433c-3,-84 -7,-162 -10,-173c-3,-12 -1,-25 5,-28c6,-4 11,-16 11,-27c0,-11 -4,-18 -9,-14c-11,6 -15,-387 -4,-399c4,-4 6,-37 5,-74c-4,-93 15,-374 39,-572c35,-294 77,-523 146,-795c274,-1086 825,-1916 1628,-2452c265,-176 575,-328 893,-437l132,-45l133,45c873,299 1563,860 2023,1645c78,133 187,349 181,356c-3,2 -8,-5 -12,-16c-9,-28 -27,-27 -23,2c2,14 11,23 26,25c15,2 28,16 38,40c27,62 94,225 94,229c0,1 -9,3 -19,3c-20,0 -37,32 -26,50c9,14 53,12 57,-2c10,-30 127,337 192,602c79,318 164,850 127,791c-7,-10 -13,-11 -30,-2c-35,19 -20,61 22,61c15,0 18,-5 14,-21c-4,-13 -2,-18 3,-13c27,27 55,589 46,949c-8,361 -36,705 -57,705c-5,0 -6,-7 -2,-16c9,-24 -27,-14 -41,11c-6,11 -11,21 -11,21c0,1 -9,4 -21,8c-17,5 -20,2 -20,-15c1,-32 -29,-48 -51,-26c-15,15 -16,20 -5,38c8,12 12,22 10,24c-2,2 -43,15 -93,30c-60,19 -90,24 -93,16c-6,-18 -29,-12 -49,13c-10,14 -33,27 -53,30c-28,5 -31,4 -12,-4c26,-11 28,-23 7,-40c-32,-27 -74,17 -44,47c8,8 -20,21 -107,48c-66,20 -132,40 -148,46c-33,10 -60,11 -33,1c16,-7 16,-10 3,-27c-12,-16 -18,-18 -33,-9c-25,15 -28,41 -6,46c10,2 -28,18 -84,36c-56,18 -109,29 -119,25c-11,-4 -15,-2 -11,4c4,6 -10,15 -32,22c-49,14 -51,14 -45,-3c6,-16 -19,-28 -41,-20c-8,4 -15,14 -15,24c0,13 6,17 23,14c32,-6 -107,44 -183,65c-36,11 -378,116 -760,236c-382,119 -702,218 -710,220c-8,2 -42,-5 -75,-16zM4430,7581c7,-15 6,-24 -6,-36c-9,-9 -21,-14 -27,-12c-18,6 -31,33 -24,51c9,22 44,20 57,-3zM4539,7586c23,-28 -17,-68 -45,-45c-15,12 -19,41 -7,52c11,12 40,8 52,-7zM4098,7461c4,-29 -15,-43 -40,-30c-18,10 -24,39 -11,53c15,15 48,1 51,-23zM4209,7476c23,-28 -17,-68 -45,-45c-15,12 -19,41 -7,52c11,12 40,8 52,-7zM4317,7479c15,-15 5,-46 -17,-52c-30,-8 -55,35 -33,56c10,11 38,8 50,-4zM4428,7478c12,-16 -2,-58 -21,-58c-18,0 -37,21 -37,41c0,27 40,38 58,17zM3768,7354c4,-29 -23,-51 -43,-34c-16,13 -20,42 -8,54c14,14 48,1 51,-20zM3878,7357c5,-25 -15,-46 -38,-40c-20,5 -28,42 -13,57c13,13 48,1 51,-17zM3988,7349c3,-28 -16,-43 -43,-33c-15,6 -21,45 -8,58c16,16 48,1 51,-25zM4098,7351c4,-29 -15,-43 -40,-30c-18,10 -24,39 -11,53c15,15 48,1 51,-23zM4210,7361c14,-28 -13,-55 -41,-41c-19,10 -26,40 -12,53c13,14 43,7 53,-12zM4318,7368c13,-17 0,-51 -21,-54c-23,-3 -40,21 -32,46c7,22 37,27 53,8zM3548,7241c4,-24 -11,-41 -36,-41c-18,0 -32,42 -19,58c17,21 52,10 55,-17zM3658,7244c4,-25 -22,-49 -43,-40c-15,5 -21,47 -8,60c14,14 48,1 51,-20zM3768,7239c3,-28 -16,-43 -43,-33c-15,6 -21,45 -8,58c16,16 48,1 51,-25zM3878,7239c3,-28 -16,-43 -43,-33c-18,7 -20,50 -2,57c25,11 42,1 45,-24zM3988,7239c4,-30 -22,-46 -44,-28c-17,14 -18,46 -1,52c25,11 42,1 45,-24zM4098,7239c4,-30 -22,-46 -44,-28c-15,12 -19,41 -7,53c16,16 48,1 51,-25zM4210,7251c7,-15 6,-23 -6,-35c-19,-19 -26,-20 -42,-4c-16,16 -15,45 1,51c24,10 36,7 47,-12zM3534,7154c9,-3 16,-17 16,-31c0,-19 -4,-24 -16,-19c-8,3 -12,2 -9,-4c3,-6 -1,-10 -9,-10c-22,0 -36,31 -25,52c10,19 18,21 43,12zM3658,7129c3,-28 -16,-43 -43,-33c-15,6 -21,45 -8,58c16,16 48,1 51,-25zM3768,7134c4,-25 -20,-47 -42,-38c-16,6 -22,45 -9,58c14,14 48,1 51,-20zM3878,7129c3,-28 -16,-43 -43,-33c-15,6 -21,45 -8,58c16,16 48,1 51,-25zM3990,7141c7,-15 6,-23 -6,-35c-18,-18 -17,-18 -38,-10c-16,6 -22,45 -9,57c13,14 43,7 53,-12zM4098,7129c4,-30 -22,-46 -44,-28c-15,12 -19,41 -7,53c16,16 48,1 51,-25zM5854,7154c20,-8 21,-50 1,-58c-24,-9 -45,4 -45,28c0,34 12,42 44,30zM5978,7129c3,-28 -16,-43 -43,-33c-15,6 -21,45 -8,58c16,16 48,1 51,-25zM6087,7128c2,-28 -16,-42 -42,-32c-15,6 -21,45 -8,58c17,16 48,1 50,-26zM3655,7039c4,-5 4,-21 1,-35c-5,-19 -12,-25 -29,-22c-37,5 -36,68 2,68c11,0 23,-5 26,-11zM3768,7018c2,-19 -2,-28 -17,-33c-28,-8 -41,1 -41,30c0,42 53,46 58,3zM3875,7015c0,-25 -4,-30 -25,-30c-16,0 -26,6 -28,18c-6,30 6,49 30,45c18,-2 23,-9 23,-33zM3978,7041c8,-4 12,-19 10,-32c-4,-30 -51,-35 -56,-6c-8,39 15,58 46,38zM4098,7021c5,-30 -10,-45 -37,-36c-21,6 -29,43 -14,59c15,15 48,1 51,-23zM4649,7031c13,-24 -9,-57 -33,-48c-23,9 -31,34 -16,52c17,20 37,19 49,-4zM4874,7028c8,-14 7,-21 -6,-34c-30,-30 -75,9 -48,42c16,18 39,15 54,-8zM4984,7028c8,-14 7,-21 -6,-34c-30,-30 -75,9 -48,42c16,18 39,15 54,-8zM5854,7044c23,-9 20,-51 -4,-59c-11,-3 -24,-3 -30,0c-14,9 -12,52 3,58c6,3 13,6 14,6c1,1 8,-2 17,-5zM5978,7018c2,-19 -2,-28 -17,-33c-27,-8 -41,1 -41,29c0,29 9,38 35,34c13,-2 21,-12 23,-30zM6085,7015c0,-25 -4,-30 -25,-30c-16,0 -26,6 -28,18c-6,30 6,49 30,45c18,-2 23,-9 23,-33zM6308,7021c5,-30 -10,-45 -37,-36c-13,4 -21,15 -21,30c0,40 53,46 58,6zM6419,7031c7,-13 6,-23 -3,-36c-18,-25 -56,-11 -56,20c0,36 42,48 59,16zM2557,7024c9,-23 -23,-51 -44,-38c-26,16 -27,33 -1,43c33,14 38,13 45,-5zM2334,6918c8,-14 7,-21 -6,-34c-30,-30 -75,9 -48,42c16,18 39,15 54,-8zM2439,6921c13,-24 -9,-57 -33,-48c-23,9 -31,34 -16,52c17,20 37,19 49,-4zM2554,6918c8,-14 7,-21 -6,-34c-30,-30 -75,9 -48,42c16,18 39,15 54,-8zM3768,6909c3,-28 -16,-43 -43,-33c-15,6 -21,45 -8,58c16,16 48,1 51,-25zM3878,6911c5,-30 -10,-45 -37,-36c-21,6 -29,43 -14,59c15,15 48,1 51,-23zM3988,6911c5,-30 -10,-45 -37,-36c-13,4 -21,15 -21,30c0,40 53,46 58,6zM4098,6909c3,-28 -16,-43 -43,-33c-18,7 -20,50 -2,57c25,11 42,1 45,-24zM4651,6919c15,-28 -9,-54 -40,-44c-23,7 -28,34 -9,53c18,18 36,15 49,-9zM4751,6930c25,-14 24,-36 -2,-50c-35,-19 -65,20 -37,48c15,15 15,15 39,2zM4874,6918c8,-14 7,-21 -6,-34c-30,-30 -75,9 -48,42c16,18 39,15 54,-8zM5748,6931c8,-4 12,-19 10,-32c-4,-30 -51,-35 -56,-6c-8,39 15,58 46,38zM5854,6934c23,-9 20,-51 -4,-59c-27,-8 -40,1 -40,29c0,34 12,42 44,30zM5964,6934c23,-9 20,-51 -4,-59c-27,-8 -40,1 -40,29c0,34 12,42 44,30zM6184,6934c9,-3 16,-16 16,-29c0,-25 -21,-38 -45,-29c-18,7 -20,50 -2,57c6,3 13,6 14,6c1,1 8,-2 17,-5zM6309,6921c7,-13 6,-23 -3,-36c-18,-25 -56,-11 -56,20c0,36 42,48 59,16zM6419,6921c7,-13 6,-23 -3,-36c-18,-25 -56,-11 -56,20c0,36 42,48 59,16zM6529,6921c13,-24 -9,-57 -33,-48c-23,9 -31,34 -16,52c17,20 37,19 49,-4zM6639,6926c16,-19 -4,-59 -26,-54c-26,5 -39,34 -24,52c17,20 35,20 50,2zM6749,6926c16,-19 -4,-59 -26,-54c-26,5 -39,34 -24,52c17,20 35,20 50,2zM1887,6791c-3,-20 -9,-26 -28,-26c-15,0 -25,7 -27,18c-5,25 15,46 39,40c14,-4 18,-12 16,-32zM1984,6824c18,-7 22,-49 6,-59c-6,-3 -19,-3 -30,0c-22,7 -28,50 -7,58c6,3 13,6 14,6c1,1 8,-2 17,-5zM2109,6811c13,-24 -9,-57 -33,-48c-23,9 -31,34 -16,52c17,20 37,19 49,-4zM2219,6808c12,-30 -9,-53 -38,-43c-23,7 -28,34 -9,53c19,19 38,14 47,-10zM2334,6808c15,-24 -13,-53 -43,-43c-23,7 -28,34 -9,53c16,16 38,12 52,-10zM2436,6816c15,-12 17,-18 8,-33c-16,-27 -51,-29 -59,-3c-6,20 9,50 24,50c4,0 16,-6 27,-14zM2880,6815c26,-31 -18,-71 -47,-43c-12,12 -13,20 -4,37c14,25 34,27 51,6zM2994,6808c8,-14 7,-21 -6,-34c-30,-30 -75,9 -48,42c16,18 39,15 54,-8zM3868,6821c8,-4 12,-19 10,-32c-2,-18 -9,-24 -28,-24c-19,0 -26,6 -28,24c-3,20 11,41 28,41c3,0 11,-4 18,-9zM3984,6814c22,-21 3,-56 -27,-52c-37,5 -33,67 5,68c4,0 14,-7 22,-16zM4088,6821c8,-4 12,-19 10,-32c-2,-18 -9,-24 -28,-24c-19,0 -26,6 -28,24c-3,20 11,41 28,41c3,0 11,-4 18,-9zM5643,6809c14,-22 2,-49 -22,-49c-26,0 -42,29 -29,53c11,21 36,19 51,-4zM5750,6815c6,-8 10,-22 8,-32c-5,-25 -51,-25 -56,0c-8,42 23,63 48,32zM5858,6821c21,-13 11,-55 -15,-59c-30,-4 -49,31 -27,52c18,18 24,19 42,7zM6188,6821c8,-4 12,-19 10,-32c-2,-18 -9,-24 -28,-24c-28,0 -39,27 -20,50c14,17 20,18 38,6zM6305,6795c0,-25 -4,-30 -25,-30c-19,0 -26,6 -28,24c-4,25 13,43 38,38c9,-1 15,-13 15,-32zM6414,6814c22,-21 3,-56 -27,-52c-25,3 -34,32 -17,53c16,19 25,19 44,-1zM6525,6795c0,-23 -5,-30 -19,-30c-28,0 -43,29 -26,50c21,25 45,14 45,-20zM6644,6808c8,-14 7,-21 -6,-34c-22,-22 -58,-10 -58,21c0,37 43,46 64,13zM6749,6816c16,-19 -4,-59 -26,-54c-26,5 -39,34 -24,52c17,20 35,20 50,2zM6861,6809c9,-17 8,-25 -4,-37c-29,-28 -73,12 -47,43c17,21 37,19 51,-6zM6974,6808c8,-14 7,-21 -6,-34c-30,-30 -75,9 -48,42c16,18 39,15 54,-8zM7084,6808c8,-14 7,-21 -6,-34c-30,-30 -75,9 -48,42c16,18 39,15 54,-8zM3943,6419c-7,-6 -231,-79 -333,-108l-25,-7l-2,-1195c-1,-657 1,-1261 5,-1344l7,-149l30,-1c20,0 31,-6 33,-18c5,-25 -15,-46 -37,-40c-15,4 -18,0 -14,-21c4,-17 12,-26 24,-26c26,0 35,-26 19,-55c-11,-20 -8,-30 20,-83c17,-33 43,-71 58,-84c14,-12 22,-17 17,-9c-5,9 -3,12 6,9c8,-3 16,-17 19,-31c11,-58 178,-196 305,-252c163,-72 368,-106 523,-86c255,34 434,119 597,287c191,196 215,293 215,889v329l-26,21c-18,14 -23,25 -18,38c4,10 13,16 21,13c8,-3 11,-1 8,4c-3,6 -1,10 4,10c6,0 11,9 11,20c0,11 -6,20 -14,20c-7,0 -19,7 -27,16c-15,18 -1,49 22,49c8,0 15,10 17,23c2,14 -2,22 -11,22c-8,0 -20,6 -26,14c-15,18 2,56 24,56c23,0 17,34 -7,45c-13,6 -23,19 -23,30c0,11 10,24 23,30c24,11 30,45 7,45c-22,0 -39,38 -24,56c6,8 18,14 25,14c24,0 15,36 -12,49c-31,14 -29,42 4,56c24,11 30,45 7,45c-22,0 -39,38 -24,56c6,8 18,14 25,14c22,0 17,41 -5,47c-37,10 -33,63 5,63c21,0 17,38 -5,45c-32,10 -35,38 -7,60c25,20 26,24 26,144c0,113 -2,123 -19,128c-33,8 -35,36 -6,59c20,16 25,27 21,42c-4,12 -13,19 -20,16c-7,-3 -17,3 -20,13c-5,13 1,24 20,39c28,23 28,54 0,54c-17,0 -28,24 -20,45c4,8 13,15 20,15c29,0 28,31 -2,55c-24,19 -27,25 -15,39c7,9 17,14 21,11c13,-8 20,23 20,88c0,54 -3,64 -26,82c-29,23 -25,50 8,58c11,3 18,11 16,18c-6,18 -79,41 -107,34c-16,-4 -29,0 -43,14c-24,26 -45,27 -53,1c-13,-40 -70,-15 -59,26c4,17 -2,22 -46,33c-28,7 -54,19 -56,25c-3,7 -3,80 -2,162l3,151l265,-83c146,-46 270,-84 277,-84c7,0 10,6 7,14c-7,18 25,29 42,15c8,-6 14,-20 14,-30c0,-22 19,-31 134,-60c45,-12 85,-25 90,-30c13,-12 46,-12 46,0c0,11 30,19 48,14c6,-3 12,-15 12,-27c0,-20 11,-26 98,-51c53,-15 112,-32 130,-38c24,-9 38,-8 52,1c20,12 50,7 50,-9c0,-5 -6,-9 -12,-9c-7,0 0,-7 16,-15c39,-21 55,-19 49,4c-7,28 30,46 51,25c20,-19 20,-28 0,-44c-13,-12 -11,-15 15,-26c24,-10 31,-20 32,-41c0,-15 3,-22 6,-15c10,24 40,33 57,16c33,-32 -19,-73 -53,-41c-11,10 -13,9 -7,-6c3,-10 6,-29 6,-41c0,-19 4,-22 29,-18c20,3 30,-1 35,-13c8,-22 -10,-45 -35,-45c-14,0 -19,-7 -19,-26c0,-19 4,-25 15,-20c17,6 46,-30 38,-50c-3,-8 -13,-14 -23,-14c-10,0 -20,-5 -22,-11c-4,-11 -79,3 -135,27c-27,11 -33,11 -44,-2c-18,-21 -53,-14 -57,13c-2,16 -16,26 -49,37c-57,20 -63,20 -63,2c0,-9 7,-12 20,-9c11,3 27,0 35,-7c23,-19 0,-53 -31,-47c-21,4 -24,1 -24,-27c0,-28 3,-32 28,-31c22,0 27,-4 27,-25c0,-21 -5,-25 -27,-25c-25,1 -28,-3 -28,-30c0,-27 3,-31 27,-30c31,0 43,-26 23,-50c-9,-11 -17,-12 -31,-4c-17,9 -19,6 -19,-24c0,-29 3,-33 28,-32c22,0 27,-4 27,-25c0,-21 -5,-25 -27,-25c-21,1 -27,-5 -30,-27c-3,-15 -1,-33 4,-40c6,-10 8,-10 8,0c0,23 45,10 48,-14c4,-29 -23,-51 -43,-34c-13,11 -15,8 -15,-22c0,-30 3,-34 28,-33c21,0 28,-5 30,-24c4,-29 -15,-43 -40,-30c-17,9 -18,3 -18,-80v-90l28,2c23,2 27,-2 30,-27c3,-23 0,-28 -13,-22c-9,3 -13,2 -10,-4c9,-14 -9,-12 -23,2c-9,9 -12,4 -12,-23c0,-31 3,-35 28,-34c22,0 28,-5 30,-28c4,-31 -20,-46 -43,-27c-13,11 -15,7 -15,-22c0,-32 2,-35 24,-31c33,7 53,-28 30,-52c-9,-9 -24,-13 -35,-10c-16,5 -19,1 -19,-24c0,-26 3,-30 27,-28c23,2 29,-3 31,-22c4,-27 -15,-43 -40,-35c-15,4 -18,-1 -18,-26c0,-27 3,-30 24,-24c18,4 27,1 35,-14c14,-27 -8,-57 -38,-49c-18,4 -21,1 -21,-30c0,-30 2,-34 15,-23c21,18 45,5 45,-24c0,-25 -30,-44 -50,-31c-6,4 -10,-7 -10,-25c0,-25 4,-31 15,-26c24,9 45,-4 45,-29c0,-24 -30,-42 -50,-30c-6,4 -10,-8 -10,-31c0,-30 3,-34 14,-25c22,18 48,2 44,-28c-2,-21 -8,-26 -30,-26c-25,1 -28,-3 -28,-33c0,-30 2,-33 15,-22c20,17 47,-5 43,-34c-2,-16 -10,-21 -30,-21c-25,1 -28,-3 -28,-32c0,-29 2,-32 18,-24c25,13 44,-1 40,-30c-3,-27 -36,-38 -49,-17c-6,8 -9,-3 -9,-31c0,-36 2,-41 14,-32c22,18 48,2 44,-28c-2,-21 -8,-26 -30,-26c-25,1 -28,-3 -28,-31c0,-27 3,-31 20,-27c11,3 27,0 35,-7c23,-19 0,-53 -31,-47c-21,4 -24,1 -24,-28c0,-29 3,-32 28,-31c22,1 27,-3 27,-24c0,-20 -5,-25 -27,-25c-22,1 -27,-4 -30,-31c-3,-29 -2,-31 27,-30c26,1 30,-3 30,-24c0,-22 -4,-25 -32,-24c-32,2 -33,1 -33,-38c0,-48 -26,-235 -41,-298c-22,-88 -21,-86 -9,-70c9,12 10,10 8,-10c-2,-14 -7,-23 -11,-20c-8,5 -36,-35 -37,-52c0,-4 10,-8 23,-10c14,-2 23,-11 25,-26c4,-27 -23,-40 -48,-24c-15,9 -20,5 -34,-31c-10,-23 -28,-63 -41,-88c-23,-46 -23,-47 -4,-52c13,-3 19,-14 19,-32c0,-20 -4,-26 -16,-21c-10,4 -13,2 -8,-6c7,-11 5,-11 -41,8c-5,2 -20,-13 -32,-34c-61,-108 -238,-294 -375,-395c-310,-228 -704,-335 -1138,-307c-378,24 -682,139 -956,362c-75,61 -81,65 -92,47c-16,-26 -41,-24 -52,4c-6,16 -4,26 9,37c17,15 16,18 -20,59c-22,25 -39,37 -39,29c0,-27 -26,-41 -50,-28c-26,14 -22,41 7,55c22,11 22,12 -18,66c-48,65 -93,119 -83,101c5,-11 2,-12 -15,-3c-22,12 -28,37 -11,43c6,2 -7,40 -29,85c-69,143 -115,288 -141,452c-10,57 -16,75 -31,78c-34,9 -37,63 -3,63c21,0 17,33 -6,53c-11,9 -20,21 -20,27c0,6 9,18 20,27c11,10 20,22 20,28c0,6 -9,18 -20,28c-11,9 -20,23 -20,32c0,8 9,19 20,25c25,14 25,32 0,55c-25,23 -25,30 1,54c14,13 19,26 14,40c-3,12 -10,19 -15,16c-11,-7 -21,21 -14,39c3,8 12,17 20,20c18,7 18,35 -1,42c-27,11 -29,46 -5,64c17,13 21,22 15,36c-5,11 -7,23 -6,27c1,5 -3,6 -9,2c-5,-3 -13,2 -17,11c-4,12 1,22 15,32c27,18 28,34 2,57c-11,10 -20,24 -20,31c0,7 9,18 20,24c20,10 20,21 19,468c0,251 -4,466 -9,477c-6,13 -9,15 -9,5c-1,-13 -2,-13 -11,0c-14,21 -12,28 10,47c11,10 20,23 20,30c0,7 -9,17 -20,23c-11,6 -20,17 -20,25c0,9 9,23 20,32c11,10 20,23 20,30c0,7 -9,17 -20,23c-11,6 -20,17 -20,25c0,9 9,23 20,32c11,10 20,22 20,29c0,6 -9,19 -20,29c-11,10 -20,22 -20,27c0,4 9,16 20,25c11,10 20,22 20,28c0,6 -9,18 -20,28c-11,9 -20,21 -20,27c0,6 9,18 20,27c25,22 25,34 -1,56c-21,18 -22,54 -2,50c6,-1 14,4 17,12c6,18 -9,19 -52,4c-18,-6 -29,-15 -26,-20c11,-19 -7,-49 -31,-49c-29,0 -43,19 -24,32c10,7 5,8 -16,3c-16,-3 -34,-12 -40,-19c-5,-7 -32,-16 -60,-19c-27,-3 -60,-9 -72,-12c-33,-10 -50,36 -29,79c13,27 13,33 0,47c-8,8 -14,23 -14,32c0,19 20,34 21,15c1,-7 4,1 8,17c5,22 3,35 -11,48c-10,10 -18,24 -18,32c0,20 21,30 31,14c7,-12 9,-11 9,1c0,8 4,20 8,27c4,7 98,40 207,74c110,34 202,64 204,66c3,2 -1,9 -7,15c-18,18 -15,36 9,48c24,13 49,-2 49,-30c0,-23 39,-15 48,9c9,25 23,30 48,19c19,-9 42,-5 109,16c85,27 85,27 69,50c-13,21 -13,25 1,40c9,9 20,16 24,16c16,0 33,-30 28,-49c-6,-23 -44,-33 353,92l265,83l3,-155c1,-85 -1,-158 -5,-162zM1770,6705c19,-23 8,-50 -20,-50c-20,0 -26,6 -28,29c-3,23 0,28 13,22c9,-3 13,-2 10,4c-10,16 11,12 25,-5zM1878,6711c8,-4 12,-19 10,-32c-2,-18 -9,-24 -28,-24c-28,0 -39,27 -20,50c14,17 20,18 38,6zM1994,6704c12,-12 13,-20 6,-35c-11,-20 -19,-23 -44,-13c-19,7 -21,50 -3,57c20,9 25,8 41,-9zM2104,6704c22,-21 3,-56 -27,-52c-25,3 -34,32 -17,53c16,19 25,19 44,-1zM2224,6693c9,-22 -13,-45 -38,-41c-26,4 -33,38 -11,54c20,15 41,9 49,-13zM2331,6704c17,-21 0,-49 -32,-49c-27,0 -37,28 -19,50c16,19 34,19 51,-1zM2884,6698c8,-14 7,-21 -6,-34c-30,-30 -75,9 -48,42c16,18 39,15 54,-8zM2990,6705c6,-8 9,-23 5,-35c-8,-26 -43,-24 -59,3c-9,15 -7,21 8,33c25,18 31,18 46,-1zM3098,6708c19,-19 14,-46 -9,-53c-31,-10 -55,16 -40,44c13,24 31,27 49,9zM5643,6698c14,-21 2,-48 -22,-48c-30,0 -45,34 -25,55c18,18 33,16 47,-7zM5748,6711c8,-4 12,-19 10,-32c-2,-18 -9,-24 -28,-24c-19,0 -26,6 -28,24c-3,20 11,41 28,41c3,0 11,-4 18,-9zM5858,6711c8,-4 12,-19 10,-32c-2,-18 -9,-24 -28,-24c-19,0 -26,6 -28,24c-3,20 11,41 28,41c3,0 11,-4 18,-9zM6418,6691c5,-30 -10,-45 -37,-36c-23,7 -28,34 -9,53c19,19 43,10 46,-17zM6529,6701c13,-24 -8,-55 -35,-49c-23,4 -30,33 -14,53c17,20 37,19 49,-4zM6636,6706c15,-12 17,-18 8,-33c-15,-24 -58,-24 -62,0c-4,18 14,47 27,47c4,0 16,-6 27,-14zM6744,6707c16,-11 17,-17 7,-36c-8,-15 -20,-21 -34,-19c-25,3 -34,32 -17,53c15,18 21,19 44,2zM6861,6699c9,-17 8,-25 -4,-37c-18,-17 -45,-10 -54,14c-4,11 1,22 12,30c25,19 32,18 46,-7zM6974,6698c8,-14 7,-21 -6,-34c-30,-30 -75,9 -48,42c16,18 39,15 54,-8zM7090,6686c0,-20 -27,-39 -45,-32c-25,9 -30,37 -10,52c20,15 55,2 55,-20zM7194,6698c8,-14 7,-21 -6,-34c-30,-30 -75,9 -48,42c16,18 39,15 54,-8zM7288,6711c20,-12 11,-56 -12,-56c-27,0 -43,29 -27,49c15,18 21,19 39,7zM1768,6601c8,-4 12,-19 10,-32c-2,-18 -9,-24 -28,-24c-19,0 -26,6 -28,24c-3,20 11,41 28,41c3,0 11,-4 18,-9zM1878,6601c8,-4 12,-19 10,-32c-2,-18 -9,-24 -28,-24c-28,0 -39,27 -20,50c14,17 20,18 38,6zM1994,6594c12,-12 13,-20 6,-35c-11,-20 -19,-23 -44,-13c-19,7 -21,35 -4,52c16,16 23,15 42,-4zM2104,6594c12,-12 13,-20 6,-35c-11,-20 -19,-23 -44,-13c-19,7 -21,35 -4,52c16,16 23,15 42,-4zM2207,6602c18,-11 19,-43 2,-55c-35,-23 -67,21 -37,51c14,14 19,14 35,4zM2880,6595c17,-21 3,-57 -22,-53c-30,4 -45,32 -29,52c17,20 35,20 51,1zM2990,6595c18,-22 8,-50 -19,-50c-32,0 -49,28 -32,49c17,20 35,20 51,1zM3103,6589c23,-37 -25,-68 -52,-35c-9,11 -10,20 -1,36c13,24 38,23 53,-1zM5858,6601c8,-4 12,-19 10,-32c-2,-18 -9,-24 -28,-24c-19,0 -26,6 -28,24c-3,20 11,41 28,41c3,0 11,-4 18,-9zM5964,6604c23,-9 20,-51 -4,-59c-11,-3 -24,-3 -30,0c-14,9 -12,52 3,58c6,3 13,6 14,6c1,1 8,-2 17,-5zM6188,6601c8,-4 12,-19 10,-32c-2,-18 -9,-24 -28,-24c-28,0 -39,27 -20,50c14,17 20,18 38,6zM6294,6604c18,-7 22,-49 6,-59c-33,-20 -65,26 -38,53c14,14 12,14 32,6zM6414,6594c22,-21 3,-56 -27,-52c-25,3 -34,32 -17,53c16,19 25,19 44,-1zM6534,6583c9,-22 -13,-45 -38,-41c-24,3 -33,33 -16,52c13,17 46,10 54,-11zM6634,6594c20,-19 20,-28 1,-44c-33,-27 -74,17 -43,48c16,16 23,15 42,-4zM6746,6596c15,-12 17,-18 8,-33c-16,-27 -51,-29 -59,-3c-6,20 9,50 24,50c4,0 16,-6 27,-14zM6854,6594c9,-8 16,-19 16,-23c0,-16 -30,-33 -45,-27c-22,8 -29,34 -15,51c16,19 25,19 44,-1zM6973,6588c13,-20 -6,-48 -34,-48c-22,0 -35,36 -18,56c15,18 38,15 52,-8zM7083,6588c13,-20 -6,-48 -34,-48c-22,0 -35,36 -18,56c15,18 38,15 52,-8zM7194,6588c8,-14 7,-21 -6,-34c-30,-30 -75,9 -48,42c16,18 39,15 54,-8zM7304,6587c13,-21 -15,-53 -38,-44c-26,10 -31,38 -11,54c22,16 35,13 49,-10zM1778,6461c-2,-20 -8,-26 -28,-26c-20,0 -26,6 -28,27c-2,19 2,27 15,30c31,7 44,-3 41,-31zM1888,6461c-2,-20 -8,-26 -28,-26c-16,0 -26,6 -28,18c-5,25 15,46 39,40c15,-4 19,-12 17,-32zM2004,6473c9,-22 -13,-45 -38,-41c-24,3 -35,46 -16,58c17,11 48,1 54,-17zM2104,6484c22,-21 3,-56 -27,-52c-28,4 -35,38 -11,55c22,16 19,16 38,-3zM2325,6484c18,-18 16,-33 -7,-47c-35,-22 -66,21 -36,51c16,16 23,15 43,-4zM6198,6461c-2,-20 -8,-26 -28,-26c-30,0 -40,33 -15,51c25,19 47,6 43,-25zM6308,6461c-2,-20 -8,-26 -28,-26c-30,0 -40,33 -15,51c25,19 47,6 43,-25zM6414,6484c22,-21 3,-56 -27,-52c-28,4 -35,38 -11,55c22,16 19,16 38,-3zM6524,6484c22,-21 3,-56 -27,-52c-25,3 -34,32 -17,53c16,19 25,19 44,-1zM6635,6484c18,-18 16,-33 -7,-47c-35,-22 -66,21 -36,51c16,16 23,15 43,-4zM6756,6479c9,-15 -16,-49 -36,-49c-23,0 -36,36 -20,54c11,14 46,11 56,-5zM6966,6486c15,-12 17,-18 8,-33c-14,-23 -43,-23 -57,-1c-8,12 -7,21 2,32c16,20 22,20 47,2zM7076,6486c15,-12 17,-18 8,-33c-14,-23 -43,-23 -57,-1c-8,12 -7,21 2,32c16,20 22,20 47,2zM7185,6486c21,-15 15,-43 -11,-53c-24,-9 -46,24 -33,48c12,23 19,23 44,5zM7305,6451c-7,-23 -34,-28 -53,-9c-19,19 -14,38 11,47c29,12 52,-9 42,-38zM2223,6471c6,-23 -10,-41 -35,-41c-21,0 -33,22 -24,45c8,22 53,19 59,-4zM6866,6475c8,-20 -13,-45 -38,-45c-21,0 -33,22 -24,45c7,20 55,19 62,0zM1778,6351c-2,-20 -8,-26 -28,-26c-30,0 -40,33 -15,51c25,19 47,6 43,-25zM1878,6381c8,-4 12,-19 10,-32c-2,-18 -9,-24 -28,-24c-28,0 -39,27 -20,50c14,17 20,18 38,6zM1994,6374c22,-21 3,-56 -27,-52c-25,3 -34,32 -17,53c16,19 25,19 44,-1zM2104,6374c19,-19 20,-26 4,-42c-31,-31 -75,10 -48,43c16,19 25,19 44,-1zM2214,6374c22,-21 3,-56 -27,-52c-25,3 -34,32 -17,53c16,19 25,19 44,-1zM2334,6363c8,-19 -19,-45 -41,-41c-24,4 -29,39 -8,54c20,15 41,9 49,-13zM2444,6363c8,-20 -11,-43 -35,-43c-25,0 -36,40 -14,56c20,15 41,9 49,-13zM6524,6374c22,-21 3,-56 -27,-52c-25,3 -34,32 -17,53c16,19 25,19 44,-1zM6635,6374c18,-18 16,-33 -7,-47c-35,-22 -66,21 -36,51c16,16 23,15 43,-4zM6744,6374c19,-19 20,-26 4,-42c-31,-31 -75,10 -48,43c16,19 25,19 44,-1zM6860,6369c13,-24 -2,-49 -31,-49c-22,0 -35,36 -19,55c17,21 37,19 50,-6zM6980,6357c-1,-39 -43,-48 -64,-14c-9,15 -7,21 8,32c21,16 56,4 56,-18zM7090,6357c0,-18 -21,-37 -41,-37c-26,0 -36,40 -14,56c20,15 55,2 55,-19zM7184,6377c25,-18 13,-59 -16,-55c-30,4 -45,32 -29,52c16,19 22,20 45,3zM7300,6371c14,-27 2,-51 -25,-51c-32,0 -45,38 -19,57c24,18 31,17 44,-6zM1778,6236c-2,-15 -10,-21 -28,-21c-31,0 -40,33 -14,52c22,16 46,-1 42,-31zM1888,6241c-2,-20 -8,-26 -28,-26c-16,0 -26,6 -28,18c-5,25 15,46 39,40c15,-4 19,-12 17,-32zM2004,6253c9,-22 -13,-45 -38,-41c-26,4 -33,38 -11,54c20,15 41,9 49,-13zM2105,6260c15,-16 16,-22 5,-35c-17,-21 -54,-15 -58,8c-4,18 14,47 28,47c4,0 15,-9 25,-20zM2222,6256c12,-18 -12,-47 -35,-44c-25,3 -34,32 -17,53c12,14 40,10 52,-9zM5208,6237c-4,-28 -46,-30 -62,-4c-9,15 -7,21 8,32c25,19 58,2 54,-28zM5313,6258c15,-23 1,-48 -28,-48c-14,0 -25,2 -25,4c0,2 -3,11 -6,19c-6,16 23,50 39,44c6,-2 15,-10 20,-19zM6754,6253c9,-22 -13,-45 -38,-41c-26,4 -33,38 -11,54c20,15 41,9 49,-13zM6858,6241c-2,-20 -8,-26 -28,-26c-30,0 -40,33 -15,51c25,19 47,6 43,-25zM7198,6237c-4,-32 -54,-36 -63,-6c-5,16 -2,26 10,35c25,18 57,0 53,-29zM7310,6250c0,-42 -53,-57 -66,-18c-9,28 20,52 47,37c11,-5 19,-14 19,-19zM2334,6255c9,-25 -5,-45 -30,-45c-26,0 -40,20 -30,45c3,8 16,15 30,15c13,0 26,-7 30,-15zM2444,6262c11,-19 -6,-48 -30,-50c-26,-2 -40,18 -30,43c6,16 51,21 60,7zM5095,6240c0,-20 -6,-26 -26,-28c-17,-2 -29,3 -32,12c-11,28 4,47 32,44c20,-2 26,-8 26,-28zM6644,6254c8,-21 -11,-44 -36,-44c-21,0 -33,22 -24,45c7,20 52,19 60,-1zM6975,6260c12,-20 -6,-50 -30,-50c-15,0 -26,7 -30,20c-9,27 1,40 30,40c13,0 27,-5 30,-10zM7085,6260c12,-20 -6,-50 -30,-50c-15,0 -26,7 -30,20c-9,27 1,40 30,40c13,0 27,-5 30,-10zM1998,6126c-2,-15 -10,-21 -28,-21c-31,0 -40,33 -14,52c22,16 46,-1 42,-31zM2114,6143c9,-22 -13,-45 -38,-41c-26,4 -33,38 -11,54c20,15 41,9 49,-13zM2334,6144c10,-26 -5,-45 -33,-42c-31,4 -41,36 -16,54c19,14 41,9 49,-12zM2444,6143c9,-22 -13,-45 -38,-41c-26,4 -33,38 -11,54c20,15 41,9 49,-13zM6644,6144c10,-26 -5,-45 -33,-42c-31,4 -41,36 -16,54c19,14 41,9 49,-12zM6864,6144c10,-26 -5,-45 -33,-42c-31,4 -41,36 -16,54c19,14 41,9 49,-12zM7084,6144c9,-23 -5,-44 -29,-44c-31,0 -45,38 -20,56c19,14 41,9 49,-12zM7198,6127c-5,-37 -67,-33 -68,5c0,4 7,14 16,22c21,22 56,3 52,-27zM1775,6130c0,-18 -6,-26 -23,-28c-13,-2 -25,3 -28,12c-10,26 4,48 28,44c17,-2 23,-10 23,-28zM1893,6141c6,-23 -10,-41 -35,-41c-21,0 -33,22 -24,45c8,22 53,19 59,-4zM2223,6141c6,-23 -10,-41 -35,-41c-21,0 -33,22 -24,45c8,22 53,19 59,-4zM5095,6130c0,-20 -6,-26 -26,-28c-17,-2 -29,3 -32,12c-11,28 4,47 32,44c20,-2 26,-8 26,-28zM5315,6130c0,-16 -6,-26 -18,-28c-25,-5 -46,15 -40,39c9,31 58,22 58,-11zM6754,6145c9,-25 -5,-45 -30,-45c-26,0 -40,20 -30,45c3,8 16,15 30,15c13,0 26,-7 30,-15zM6976,6145c8,-20 -13,-45 -38,-45c-21,0 -33,22 -24,45c7,20 55,19 62,0zM7305,6136c0,-30 -31,-44 -51,-24c-24,24 -11,50 23,46c20,-2 28,-9 28,-22zM1778,6016c-2,-15 -10,-21 -28,-21c-31,0 -40,33 -14,52c22,16 46,-1 42,-31zM2214,6044c22,-21 3,-56 -27,-52c-28,4 -35,38 -11,55c22,16 19,16 38,-3zM2334,6006c-9,-24 -58,-18 -63,8c-2,11 5,26 15,33c16,11 21,11 36,-5c12,-11 16,-25 12,-36zM2444,6034c10,-26 -5,-45 -33,-42c-31,4 -41,36 -16,54c19,14 41,9 49,-12zM6974,6034c9,-24 -5,-44 -30,-44c-13,0 -24,2 -24,4c0,2 -3,11 -6,19c-7,18 22,48 41,41c7,-3 16,-12 19,-20zM7198,6017c-5,-37 -67,-33 -68,5c0,4 7,14 16,22c21,22 56,3 52,-27zM1885,6020c0,-18 -6,-26 -23,-28c-24,-4 -38,18 -28,44c3,9 15,14 28,12c17,-2 23,-10 23,-28zM2000,6035c10,-12 10,-18 0,-30c-27,-32 -71,-8 -56,30c3,8 14,15 24,15c11,0 25,-7 32,-15zM2114,6034c8,-21 -11,-44 -36,-44c-21,0 -33,22 -24,45c7,20 52,19 60,-1zM6639,6036c17,-20 2,-46 -25,-46c-26,0 -40,20 -30,45c7,19 40,20 55,1zM6749,6036c17,-20 2,-46 -25,-46c-26,0 -40,20 -30,45c7,19 40,20 55,1zM6864,6035c9,-25 -5,-45 -30,-45c-14,0 -27,7 -30,15c-10,25 4,45 30,45c13,0 26,-7 30,-15zM7084,6035c9,-24 -4,-45 -29,-45c-24,0 -42,30 -30,50c10,15 52,12 59,-5zM7305,6020c0,-34 -50,-42 -60,-11c-9,29 3,43 33,39c21,-2 27,-8 27,-28zM1667,6008c-3,-7 -5,-2 -5,12c0,14 2,19 5,13c2,-7 2,-19 0,-25zM6534,5924c10,-26 -5,-45 -33,-42c-31,4 -41,36 -16,54c19,14 41,9 49,-12zM1775,5910c0,-18 -6,-26 -23,-28c-24,-4 -38,18 -28,44c3,9 15,14 28,12c17,-2 23,-10 23,-28zM1885,5910c0,-18 -6,-26 -23,-28c-24,-4 -38,18 -28,44c3,9 15,14 28,12c17,-2 23,-10 23,-28zM1998,5928c16,-16 -3,-48 -29,-48c-22,0 -34,22 -25,45c6,18 37,20 54,3zM2113,5921c6,-23 -10,-41 -35,-41c-21,0 -33,22 -24,45c8,22 53,19 59,-4zM2223,5928c7,-21 -12,-48 -34,-48c-22,0 -34,22 -25,45c7,18 53,20 59,3zM2334,5924c8,-21 -11,-44 -36,-44c-21,0 -33,22 -24,45c7,20 52,19 60,-1zM2444,5925c9,-25 -5,-45 -30,-45c-26,0 -40,20 -30,45c3,8 16,15 30,15c13,0 26,-7 30,-15zM2555,5910c0,-20 -6,-26 -28,-28c-29,-4 -44,16 -33,44c4,10 15,14 33,12c22,-2 28,-8 28,-28zM2665,5930c13,-20 -6,-50 -31,-50c-26,0 -40,20 -30,45c6,17 51,20 61,5zM2775,5930c13,-20 -6,-50 -31,-50c-26,0 -40,20 -30,45c6,17 51,20 61,5zM6305,5910c0,-18 -6,-26 -23,-28c-24,-4 -38,18 -28,44c3,9 15,14 28,12c17,-2 23,-10 23,-28zM6418,5928c16,-16 -3,-48 -29,-48c-22,0 -34,22 -25,45c6,18 37,20 54,3zM6644,5924c8,-21 -11,-44 -36,-44c-21,0 -33,22 -24,45c7,20 52,19 60,-1zM6755,5930c13,-20 -6,-50 -31,-50c-26,0 -40,20 -30,45c6,17 51,20 61,5zM6864,5925c9,-25 -5,-45 -30,-45c-14,0 -27,7 -30,15c-10,25 4,45 30,45c13,0 26,-7 30,-15zM6974,5925c9,-25 -5,-45 -30,-45c-26,0 -40,20 -30,45c3,8 16,15 30,15c13,0 26,-7 30,-15zM7083,5928c8,-26 -5,-48 -29,-48c-26,0 -40,20 -30,45c7,18 53,20 59,3zM7195,5910c0,-34 -50,-42 -60,-11c-9,29 3,43 33,39c21,-2 27,-8 27,-28zM7305,5910c0,-19 -6,-26 -24,-28c-30,-5 -45,10 -36,38c10,32 60,24 60,-10zM1667,5898c-3,-7 -5,-2 -5,12c0,14 2,19 5,13c2,-7 2,-19 0,-25zM1775,5800c0,-18 -6,-26 -23,-28c-13,-2 -25,3 -28,12c-10,26 4,48 28,44c17,-2 23,-10 23,-28zM1885,5800c0,-18 -6,-26 -23,-28c-13,-2 -25,3 -28,12c-10,26 4,48 28,44c17,-2 23,-10 23,-28zM2000,5815c10,-12 10,-18 0,-30c-27,-32 -71,-8 -56,30c3,8 14,15 24,15c11,0 25,-7 32,-15zM2114,5814c8,-21 -11,-44 -36,-44c-21,0 -33,22 -24,45c7,20 52,19 60,-1zM2219,5816c17,-20 2,-46 -25,-46c-26,0 -40,20 -30,45c7,19 40,20 55,1zM2329,5816c17,-20 2,-46 -25,-46c-26,0 -40,20 -30,45c7,19 40,20 55,1zM2444,5815c9,-25 -5,-45 -30,-45c-26,0 -40,20 -30,45c3,8 16,15 30,15c13,0 26,-7 30,-15zM2555,5820c12,-20 -6,-50 -30,-50c-29,0 -38,13 -30,40c7,21 49,28 60,10zM2664,5815c9,-24 -4,-45 -29,-45c-24,0 -42,30 -30,50c10,15 52,12 59,-5zM2775,5810c9,-27 -1,-40 -31,-40c-26,0 -40,20 -30,45c8,23 53,19 61,-5zM6308,5798c3,-24 0,-28 -23,-28c-27,0 -41,20 -31,46c10,27 51,13 54,-18zM6419,5812c12,-22 -3,-42 -31,-42c-21,0 -33,22 -24,45c8,21 43,19 55,-3zM6528,5798c3,-24 0,-28 -23,-28c-27,0 -41,20 -31,46c10,27 51,13 54,-18zM6644,5815c9,-25 -5,-45 -30,-45c-14,0 -27,7 -30,15c-10,25 4,45 30,45c13,0 26,-7 30,-15zM6754,5815c9,-25 -5,-45 -30,-45c-26,0 -40,20 -30,45c3,8 16,15 30,15c13,0 26,-7 30,-15zM6864,5815c9,-25 -5,-45 -30,-45c-14,0 -27,7 -30,15c-10,25 4,45 30,45c13,0 26,-7 30,-15zM6975,5810c8,-27 -1,-40 -30,-40c-25,0 -38,21 -29,45c9,22 51,19 59,-5zM7085,5820c12,-20 -6,-50 -30,-50c-29,0 -38,13 -30,40c7,21 49,28 60,10zM7198,5803c4,-29 -28,-47 -53,-29c-12,9 -15,19 -10,35c9,30 59,26 63,-6zM7304,5815c9,-24 -4,-45 -29,-45c-25,0 -38,21 -29,45c4,8 16,15 29,15c13,0 25,-7 29,-15zM1667,5788c-3,-7 -5,-2 -5,12c0,14 2,19 5,13c2,-7 2,-19 0,-25zM1778,5696c5,-26 -26,-50 -45,-35c-14,12 -17,41 -6,53c13,13 48,1 51,-18zM1888,5688c3,-24 0,-28 -23,-28c-27,0 -41,20 -31,46c10,27 51,13 54,-18zM2000,5705c10,-12 10,-18 0,-30c-27,-32 -71,-8 -56,30c3,8 14,15 24,15c11,0 25,-7 32,-15zM2109,5706c17,-20 2,-46 -25,-46c-26,0 -40,20 -30,45c7,19 40,20 55,1zM2219,5706c17,-20 2,-46 -25,-46c-26,0 -40,20 -30,45c7,19 40,20 55,1zM2329,5706c17,-20 2,-46 -25,-46c-26,0 -40,20 -30,45c7,19 40,20 55,1zM2445,5700c9,-27 -1,-40 -31,-40c-26,0 -40,20 -30,45c8,23 53,19 61,-5zM2556,5698c9,-28 -20,-52 -47,-37c-19,10 -25,39 -12,52c15,16 52,6 59,-15zM2664,5704c8,-21 -11,-44 -36,-44c-21,0 -33,22 -24,45c7,20 52,19 60,-1zM2775,5710c13,-20 -6,-50 -31,-50c-26,0 -40,20 -30,45c6,17 51,20 61,5zM5095,5690c0,-20 -6,-26 -26,-28c-17,-2 -29,3 -32,12c-11,28 4,47 32,44c20,-2 26,-8 26,-28zM5208,5693c4,-30 -31,-49 -52,-27c-19,19 -20,26 -4,42c19,19 53,10 56,-15zM5315,5690c0,-20 -6,-26 -26,-28c-28,-3 -43,16 -32,44c3,9 15,14 32,12c20,-2 26,-8 26,-28zM6310,5705c10,-12 10,-18 0,-30c-27,-32 -71,-8 -56,30c3,8 14,15 24,15c11,0 25,-7 32,-15zM6424,5705c9,-25 -5,-45 -30,-45c-26,0 -40,20 -30,45c3,8 16,15 30,15c13,0 26,-7 30,-15zM6528,5688c3,-24 0,-28 -23,-28c-27,0 -41,20 -31,46c10,27 51,13 54,-18zM6638,5703c13,-26 4,-43 -24,-43c-26,0 -40,20 -30,45c8,21 43,19 54,-2zM6748,5708c16,-16 15,-23 -4,-42c-12,-12 -20,-13 -35,-6c-19,10 -26,40 -12,53c10,11 38,8 51,-5zM6864,5705c9,-25 -5,-45 -30,-45c-14,0 -27,7 -30,15c-10,25 4,45 30,45c13,0 26,-7 30,-15zM6975,5690c0,-19 -6,-26 -24,-28c-30,-5 -45,10 -36,38c10,32 60,24 60,-10zM7084,5705c9,-25 -5,-45 -30,-45c-26,0 -40,20 -30,45c3,8 16,15 30,15c13,0 26,-7 30,-15zM7195,5690c0,-19 -6,-26 -24,-28c-30,-5 -45,10 -36,38c10,32 60,24 60,-10zM7305,5700c8,-27 -1,-40 -30,-40c-25,0 -38,21 -29,45c9,22 51,19 59,-5zM1778,5578c3,-24 0,-28 -23,-28c-27,0 -41,20 -31,46c10,27 51,13 54,-18zM1888,5581c4,-29 -15,-43 -40,-30c-18,10 -24,39 -11,53c15,15 48,1 51,-23zM1999,5596c23,-28 -17,-68 -45,-45c-15,12 -19,41 -7,52c11,12 40,8 52,-7zM2109,5596c17,-20 2,-46 -25,-46c-26,0 -40,20 -30,45c7,19 40,20 55,1zM2219,5593c14,-26 -15,-56 -40,-42c-21,11 -25,45 -6,52c23,10 36,7 46,-10zM2330,5606c0,-2 3,-11 6,-19c9,-23 -24,-49 -47,-37c-19,10 -26,40 -12,53c7,8 53,10 53,3zM2440,5591c14,-28 -13,-55 -41,-41c-19,10 -26,40 -12,53c13,14 43,7 53,-12zM2554,5587c15,-25 -18,-51 -45,-36c-19,10 -25,39 -12,53c12,12 45,2 57,-17zM2665,5590c9,-27 -1,-40 -30,-40c-29,0 -39,13 -30,40c4,13 15,20 30,20c15,0 26,-7 30,-20zM2771,5600c5,-42 3,-45 -26,-45c-33,0 -48,30 -23,46c18,12 48,11 49,-1zM5094,5594c10,-25 7,-33 -13,-43c-27,-15 -56,9 -47,37c9,26 51,30 60,6zM5205,5580c0,-20 -6,-26 -26,-28c-30,-4 -46,22 -28,45c20,23 54,12 54,-17zM5315,5580c0,-19 -6,-26 -24,-28c-29,-4 -43,15 -30,41c15,28 54,19 54,-13zM6418,5578c3,-24 0,-28 -23,-28c-27,0 -41,20 -31,46c10,27 51,13 54,-18zM6529,5592c12,-22 3,-39 -23,-44c-22,-4 -42,23 -33,46c8,22 44,20 56,-2zM6639,5596c6,-7 9,-20 5,-29c-15,-41 -73,-20 -59,22c7,24 37,28 54,7zM6748,5598c16,-16 15,-23 -4,-42c-19,-20 -54,-5 -54,24c0,28 37,39 58,18zM6858,5598c16,-16 15,-23 -4,-42c-12,-12 -20,-13 -35,-6c-19,10 -26,40 -12,53c10,11 38,8 51,-5zM6976,5588c12,-39 -45,-60 -60,-22c-9,23 5,44 29,44c15,0 26,-8 31,-22zM7079,5596c6,-7 9,-20 5,-29c-15,-39 -72,-19 -60,21c8,25 38,29 55,8zM7198,5583c4,-30 -31,-49 -52,-27c-19,19 -20,26 -4,42c19,19 53,10 56,-15zM7296,5594c-4,-9 -2,-13 5,-8c7,4 10,-1 7,-12c-4,-24 -53,-32 -61,-10c-10,26 3,46 30,46c19,0 24,-4 19,-16zM1775,5471c0,-17 -6,-25 -23,-27c-25,-4 -38,16 -28,42c10,25 51,14 51,-15zM1888,5471c4,-29 -15,-43 -40,-30c-18,10 -24,39 -11,53c15,15 48,1 51,-23zM1995,5470c0,-20 -6,-26 -27,-28c-24,-3 -28,0 -28,21c0,30 9,39 35,35c14,-2 20,-10 20,-28zM2109,5486c17,-20 3,-46 -24,-46c-29,0 -38,13 -30,40c7,23 37,26 54,6zM2218,5483c13,-26 4,-43 -24,-43c-26,0 -40,20 -30,45c8,21 43,19 54,-2zM2334,5478c12,-20 2,-34 -28,-40c-22,-4 -42,23 -33,46c9,22 46,18 61,-6zM2439,5486c6,-7 9,-20 5,-29c-15,-39 -72,-19 -60,21c8,25 38,29 55,8zM2549,5486c18,-21 3,-46 -26,-44c-27,3 -39,19 -29,43c7,19 40,20 55,1zM2666,5478c9,-28 -20,-52 -47,-37c-19,10 -25,39 -12,52c15,16 52,6 59,-15zM2775,5480c9,-27 -1,-40 -30,-40c-29,0 -39,13 -30,40c4,13 15,20 30,20c15,0 26,-7 30,-20zM5095,5480c8,-27 -1,-40 -30,-40c-25,0 -38,21 -29,45c9,22 51,19 59,-5zM5205,5480c9,-27 0,-37 -31,-37c-30,0 -42,21 -24,42c18,21 48,19 55,-5zM5318,5473c4,-30 -31,-49 -52,-27c-19,19 -20,26 -4,42c19,19 53,10 56,-15zM6418,5488c16,-16 15,-23 -4,-42c-12,-12 -20,-13 -35,-6c-19,10 -26,40 -12,53c10,11 38,8 51,-5zM6528,5483c13,-26 4,-43 -24,-43c-26,0 -40,20 -30,45c8,21 43,19 54,-2zM6638,5488c16,-16 15,-23 -4,-42c-12,-12 -20,-13 -35,-6c-19,10 -26,40 -12,53c10,11 38,8 51,-5zM6754,5485c9,-25 -5,-45 -30,-45c-26,0 -40,20 -30,45c3,8 16,15 30,15c13,0 26,-7 30,-15zM6857,5489c18,-18 3,-49 -23,-49c-26,0 -40,20 -30,45c6,17 37,20 53,4zM6975,5480c8,-27 -1,-40 -30,-40c-25,0 -38,21 -29,45c9,22 51,19 59,-5zM7084,5485c9,-24 -4,-45 -29,-45c-29,0 -38,13 -30,40c8,24 50,27 59,5zM7198,5473c4,-29 -28,-47 -53,-29c-12,9 -15,19 -10,35c9,30 59,26 63,-6zM7305,5480c9,-27 -1,-40 -30,-40c-29,0 -39,13 -30,40c4,13 15,20 30,20c15,0 26,-7 30,-20zM1778,5364c4,-29 -23,-51 -43,-34c-16,13 -20,42 -8,54c14,14 48,1 51,-20zM1888,5359c4,-30 -22,-46 -44,-28c-15,12 -19,41 -7,53c16,16 48,1 51,-25zM1999,5376c23,-28 -17,-68 -45,-45c-15,12 -19,41 -7,52c11,12 40,8 52,-7zM2110,5371c7,-15 6,-24 -6,-36c-9,-9 -21,-14 -27,-12c-18,6 -31,33 -24,51c9,22 44,20 57,-3zM2220,5371c14,-28 -13,-55 -41,-41c-19,10 -26,40 -12,53c13,14 43,7 53,-12zM2334,5367c9,-15 7,-21 -9,-33c-10,-8 -24,-13 -29,-11c-17,6 -29,34 -23,51c9,22 46,17 61,-7zM2440,5371c7,-15 6,-23 -6,-35c-8,-9 -19,-16 -23,-16c-17,0 -32,30 -26,50c8,25 41,26 55,1zM2548,5378c18,-18 15,-36 -9,-49c-28,-15 -54,9 -44,40c7,23 34,28 53,9zM2661,5374c13,-16 4,-44 -17,-51c-21,-7 -47,23 -40,45c9,26 38,29 57,6zM2776,5368c7,-22 -19,-52 -40,-45c-21,7 -30,35 -17,51c19,23 48,20 57,-6zM5206,5368c9,-28 -20,-52 -47,-37c-22,11 -24,30 -7,47c19,19 46,14 54,-10zM5315,5369c6,-19 -9,-49 -26,-49c-19,0 -39,32 -30,49c13,24 49,24 56,0zM6639,5376c23,-28 -17,-68 -45,-45c-15,12 -19,41 -7,52c11,12 40,8 52,-7zM6749,5376c6,-7 9,-20 5,-29c-15,-41 -73,-20 -59,22c7,24 37,28 54,7zM6859,5376c14,-16 5,-42 -16,-50c-20,-8 -43,11 -43,34c0,29 40,39 59,16zM6971,5374c13,-16 4,-44 -17,-51c-21,-7 -47,23 -40,45c9,26 38,29 57,6zM7084,5367c9,-15 7,-21 -8,-32c-35,-26 -74,13 -44,43c16,16 38,12 52,-11zM7196,5368c12,-40 -45,-60 -60,-21c-4,9 -1,22 5,29c17,21 47,17 55,-8zM7306,5368c12,-39 -45,-60 -60,-22c-9,23 5,44 29,44c15,0 26,-8 31,-22zM1778,5249c4,-30 -22,-46 -44,-28c-15,12 -19,41 -7,53c16,16 48,1 51,-25zM1888,5249c3,-28 -16,-43 -43,-33c-15,6 -21,45 -8,58c16,16 48,1 51,-25zM1997,5269c12,-12 6,-39 -11,-51c-25,-17 -61,33 -39,55c10,11 38,8 50,-4zM2110,5261c7,-15 6,-23 -6,-35c-8,-9 -19,-16 -23,-16c-17,0 -32,30 -26,50c8,25 41,26 55,1zM2217,5269c15,-15 5,-46 -17,-52c-30,-8 -55,35 -33,56c10,11 38,8 50,-4zM2328,5268c16,-16 15,-23 -4,-42c-12,-12 -20,-13 -35,-6c-10,6 -19,16 -19,23c0,16 20,37 35,37c6,0 16,-5 23,-12zM2444,5257c9,-15 7,-21 -8,-32c-23,-18 -56,-3 -56,25c0,33 45,38 64,7zM2554,5257c9,-15 7,-21 -9,-33c-22,-16 -34,-14 -49,8c-7,12 -6,21 4,33c16,19 39,16 54,-8zM2660,5265c26,-31 -18,-71 -47,-42c-19,19 -8,57 16,57c10,0 24,-7 31,-15zM5094,5258c16,-27 -14,-54 -43,-39c-24,13 -27,31 -9,49c16,16 38,12 52,-10zM5204,5258c8,-14 7,-21 -5,-33c-28,-29 -73,11 -48,42c15,17 38,13 53,-9zM5318,5257c5,-25 -15,-46 -38,-40c-20,5 -28,42 -13,57c13,13 48,1 51,-17zM6308,5249c4,-30 -22,-46 -44,-28c-15,12 -19,41 -7,53c16,16 48,1 51,-25zM6420,5261c7,-15 6,-24 -6,-36c-9,-9 -21,-14 -27,-12c-18,6 -31,33 -24,51c9,22 44,20 57,-3zM6529,5266c23,-28 -17,-68 -45,-45c-15,12 -19,41 -7,52c11,12 40,8 52,-7zM6639,5266c23,-28 -17,-68 -45,-45c-15,12 -19,41 -7,52c11,12 40,8 52,-7zM6748,5268c16,-16 15,-23 -4,-42c-12,-12 -20,-13 -35,-6c-19,10 -26,40 -12,53c10,11 38,8 51,-5zM6864,5257c9,-15 7,-21 -8,-32c-23,-18 -56,-3 -56,25c0,33 45,38 64,7zM6968,5268c19,-19 14,-38 -10,-47c-30,-12 -53,9 -43,38c7,23 34,28 53,9zM7084,5257c9,-15 7,-21 -8,-32c-35,-26 -74,13 -44,43c16,16 38,12 52,-11zM7194,5257c9,-15 7,-21 -9,-33c-22,-16 -34,-14 -49,8c-7,12 -6,21 4,33c16,19 39,16 54,-8zM7298,5268c16,-16 15,-23 -4,-42c-12,-12 -20,-13 -35,-6c-10,6 -19,16 -19,23c0,16 20,37 35,37c6,0 16,-5 23,-12zM1778,5139c3,-28 -16,-43 -43,-33c-15,6 -21,45 -8,58c16,16 48,1 51,-25zM1888,5139c4,-30 -22,-46 -44,-28c-15,12 -19,41 -7,53c16,16 48,1 51,-25zM2000,5151c7,-15 6,-24 -6,-36c-9,-9 -21,-14 -27,-12c-18,6 -31,33 -24,51c9,22 44,20 57,-3zM2109,5151c8,-14 6,-23 -10,-37c-18,-16 -21,-16 -35,-2c-20,20 -10,58 16,58c11,0 24,-8 29,-19zM2219,5156c9,-11 10,-20 1,-36c-13,-24 -38,-23 -53,1c-23,37 25,68 52,35zM2659,5156c16,-19 -4,-59 -26,-54c-26,5 -39,34 -24,52c17,20 35,20 50,2zM5094,5148c8,-14 7,-21 -6,-34c-30,-30 -75,9 -48,42c16,18 39,15 54,-8zM5201,5154c9,-11 10,-20 3,-32c-14,-22 -27,-24 -48,-9c-15,11 -17,17 -7,35c14,26 33,28 52,6zM5315,5150c6,-20 -9,-50 -24,-50c-4,0 -15,6 -25,13c-15,11 -17,17 -7,35c15,28 48,28 56,2zM6308,5139c4,-30 -22,-46 -44,-28c-15,12 -19,41 -7,53c16,16 48,1 51,-25zM6412,5156c-2,-5 1,-12 7,-15c18,-11 -13,-46 -33,-38c-37,15 -32,71 6,65c13,-2 21,-7 20,-12zM6639,5156c6,-7 9,-20 5,-29c-15,-41 -73,-20 -59,22c7,24 37,28 54,7zM6748,5158c19,-19 14,-38 -10,-47c-30,-12 -53,9 -43,38c7,23 34,28 53,9zM6861,5148c10,-18 8,-24 -7,-35c-21,-15 -34,-13 -48,9c-7,12 -6,21 3,32c19,22 38,20 52,-6zM6970,5155c26,-31 -18,-71 -47,-42c-19,19 -8,57 16,57c10,0 24,-7 31,-15zM7194,5147c9,-15 7,-21 -8,-32c-35,-26 -74,13 -44,43c16,16 38,12 52,-11zM1888,5029c3,-28 -16,-43 -43,-33c-15,6 -21,45 -8,58c16,16 48,1 51,-25zM2000,5041c7,-15 6,-23 -6,-35c-18,-18 -17,-18 -38,-10c-19,7 -21,50 -3,57c24,10 36,7 47,-12zM2110,5041c7,-15 6,-23 -6,-35c-18,-18 -17,-18 -38,-10c-19,7 -21,50 -3,57c24,10 36,7 47,-12zM2219,5046c16,-19 -4,-59 -26,-54c-26,5 -39,34 -24,52c17,20 35,20 50,2zM2664,5038c8,-14 7,-21 -6,-34c-30,-30 -75,9 -48,42c16,18 39,15 54,-8zM4984,5037c9,-15 7,-21 -9,-33c-22,-16 -34,-14 -49,8c-7,12 -6,21 4,33c16,19 39,16 54,-8zM5094,5038c8,-14 7,-21 -6,-34c-30,-30 -75,9 -48,42c16,18 39,15 54,-8zM5194,5054c20,-8 21,-38 1,-54c-30,-25 -70,15 -45,45c14,17 21,18 44,9zM5314,5038c8,-14 7,-21 -6,-34c-30,-30 -75,9 -48,42c16,18 39,15 54,-8zM6308,5031c5,-30 -10,-45 -37,-36c-13,4 -21,15 -21,30c0,40 53,46 58,6zM6420,5041c7,-15 6,-24 -6,-36c-9,-9 -21,-14 -27,-12c-18,6 -31,33 -24,51c9,22 44,20 57,-3zM6754,5038c8,-14 7,-21 -6,-34c-30,-30 -75,9 -48,42c16,18 39,15 54,-8zM6859,5046c16,-19 -4,-59 -26,-54c-26,5 -39,34 -24,52c17,20 35,20 50,2zM6974,5037c9,-15 7,-21 -9,-33c-22,-16 -34,-14 -49,8c-7,12 -6,21 4,33c16,19 39,16 54,-8zM7084,5038c16,-27 -14,-54 -43,-39c-24,13 -27,31 -9,49c16,16 38,12 52,-10zM1998,4921c5,-30 -10,-45 -37,-36c-13,4 -21,15 -21,30c0,40 53,46 58,6zM2110,4931c7,-15 6,-23 -6,-35c-8,-9 -19,-16 -23,-16c-17,0 -32,30 -26,50c8,25 41,26 55,1zM2219,4931c15,-27 -11,-60 -36,-45c-23,14 -29,44 -11,55c21,14 37,10 47,-10zM4874,4928c8,-14 7,-21 -6,-34c-30,-30 -75,9 -48,42c16,18 39,15 54,-8zM4984,4928c8,-14 7,-21 -6,-34c-30,-30 -75,9 -48,42c16,18 39,15 54,-8zM5094,4928c8,-14 7,-21 -6,-34c-30,-30 -75,9 -48,42c16,18 39,15 54,-8zM5204,4928c8,-14 7,-21 -6,-34c-30,-30 -75,9 -48,42c16,18 39,15 54,-8zM5311,4934c9,-11 10,-20 3,-32c-14,-22 -27,-24 -48,-9c-15,11 -17,17 -7,35c14,26 33,28 52,6zM6308,4921c5,-30 -10,-45 -37,-36c-13,4 -21,15 -21,30c0,40 53,46 58,6zM6419,4931c7,-13 6,-23 -3,-36c-10,-14 -16,-15 -34,-6c-21,11 -29,40 -15,54c13,13 42,7 52,-12zM6529,4931c7,-13 6,-23 -3,-36c-23,-32 -67,2 -52,40c8,21 43,19 55,-4zM6751,4928c10,-18 8,-24 -7,-35c-23,-17 -29,-16 -44,2c-16,19 -3,55 20,55c11,0 25,-10 31,-22zM6861,4928c10,-18 8,-24 -7,-35c-21,-15 -34,-13 -48,9c-7,12 -6,21 3,32c19,22 38,20 52,-6zM6974,4928c8,-14 7,-21 -6,-34c-30,-30 -75,9 -48,42c16,18 39,15 54,-8zM7084,4927c9,-15 7,-21 -9,-33c-22,-16 -34,-14 -49,8c-7,12 -6,21 4,33c16,19 39,16 54,-8zM7194,4928c8,-14 7,-21 -6,-34c-30,-30 -75,9 -48,42c16,18 39,15 54,-8zM1999,4821c7,-13 6,-23 -3,-36c-17,-24 -50,-15 -54,14c-6,39 39,56 57,22zM2109,4821c13,-24 -9,-57 -33,-48c-23,9 -31,34 -16,52c17,20 37,19 49,-4zM2218,4811c5,-30 -10,-45 -37,-36c-13,4 -21,15 -21,30c0,40 53,46 58,6zM2441,4819c9,-17 8,-25 -4,-37c-29,-28 -73,12 -47,43c17,21 37,19 51,-6zM4874,4818c8,-14 7,-21 -6,-34c-30,-30 -75,9 -48,42c16,18 39,15 54,-8zM4983,4818c8,-12 7,-21 -2,-32c-18,-22 -38,-20 -51,5c-22,40 29,66 53,27zM5086,4826c15,-12 17,-18 8,-33c-14,-23 -43,-23 -57,-1c-8,12 -7,21 2,32c16,20 22,20 47,2zM5204,4818c8,-14 7,-21 -6,-34c-30,-30 -75,9 -48,42c16,18 39,15 54,-8zM5308,4831c18,-11 12,-41 -10,-55c-27,-16 -54,14 -39,43c12,22 27,26 49,12zM6308,4811c5,-30 -10,-45 -37,-36c-23,7 -28,34 -9,53c19,19 43,10 46,-17zM6419,4821c7,-13 6,-23 -3,-36c-18,-25 -56,-11 -56,20c0,36 42,48 59,16zM6524,4824c22,-21 3,-56 -27,-52c-37,5 -33,67 5,68c4,0 14,-7 22,-16zM6859,4826c16,-19 -4,-59 -26,-54c-26,5 -39,34 -24,52c17,20 35,20 50,2zM6974,4818c8,-14 7,-21 -6,-34c-30,-30 -75,9 -48,42c16,18 39,15 54,-8zM7081,4819c9,-17 8,-25 -4,-37c-29,-28 -73,12 -47,43c17,21 37,19 51,-6zM7194,4818c8,-14 7,-21 -6,-34c-30,-30 -75,9 -48,42c16,18 39,15 54,-8zM2111,4709c9,-17 8,-25 -4,-37c-29,-28 -73,12 -47,43c17,21 37,19 51,-6zM2219,4708c12,-30 -9,-53 -38,-43c-23,7 -30,50 -8,58c25,11 38,6 46,-15zM2334,4707c9,-15 7,-21 -9,-33c-22,-16 -34,-14 -49,8c-7,12 -6,21 4,33c16,19 39,16 54,-8zM2441,4709c9,-17 8,-25 -4,-37c-29,-28 -73,12 -47,43c17,21 37,19 51,-6zM2554,4708c8,-14 7,-21 -6,-34c-30,-30 -75,9 -48,42c16,18 39,15 54,-8zM2661,4709c9,-17 8,-25 -4,-37c-29,-28 -73,12 -47,43c17,21 37,19 51,-6zM4874,4708c8,-14 7,-21 -6,-34c-30,-30 -75,9 -48,42c16,18 39,15 54,-8zM4984,4708c8,-14 7,-21 -6,-34c-30,-30 -75,9 -48,42c16,18 39,15 54,-8zM5094,4708c8,-14 7,-21 -6,-34c-30,-30 -75,9 -48,42c16,18 39,15 54,-8zM5198,4718c19,-19 14,-46 -8,-53c-22,-7 -50,9 -50,29c0,15 20,36 35,36c6,0 16,-5 23,-12zM5314,4708c8,-14 7,-21 -6,-34c-30,-30 -75,9 -48,42c16,18 39,15 54,-8zM6309,4711c7,-13 6,-23 -3,-36c-18,-25 -56,-11 -56,20c0,36 42,48 59,16zM6419,4713c11,-21 -3,-53 -23,-53c-21,0 -38,27 -31,50c8,24 40,26 54,3zM6529,4711c15,-27 -9,-56 -37,-47c-24,8 -29,35 -10,54c17,17 36,15 47,-7zM6640,4709c9,-15 8,-24 -1,-35c-26,-32 -69,-1 -49,35c6,12 17,21 25,21c8,0 19,-9 25,-21zM6855,4695c0,-23 -5,-30 -19,-30c-28,0 -43,29 -26,50c21,25 45,14 45,-20zM6974,4708c8,-14 7,-21 -6,-34c-30,-30 -75,9 -48,42c16,18 39,15 54,-8zM7079,4716c16,-19 -4,-59 -26,-54c-26,5 -39,34 -24,52c17,20 35,20 50,2zM2664,4598c8,-14 7,-21 -6,-34c-30,-30 -75,9 -48,42c16,18 39,15 54,-8zM4874,4598c8,-14 7,-21 -6,-34c-30,-30 -75,9 -48,42c16,18 39,15 54,-8zM4984,4598c8,-14 7,-21 -6,-34c-30,-30 -75,9 -48,42c16,18 39,15 54,-8zM5090,4605c6,-8 9,-23 5,-35c-8,-26 -43,-24 -59,3c-9,15 -7,21 8,33c25,18 31,18 46,-1zM5204,4598c8,-14 7,-21 -6,-34c-30,-30 -75,9 -48,42c16,18 39,15 54,-8zM5310,4605c16,-19 3,-55 -20,-55c-25,0 -41,29 -29,52c12,22 32,23 49,3zM6305,4585c0,-25 -4,-30 -25,-30c-19,0 -26,6 -28,24c-4,25 13,43 38,38c9,-1 15,-13 15,-32zM6418,4581c-2,-18 -10,-27 -25,-29c-29,-4 -43,36 -18,54c25,19 47,6 43,-25zM6529,4601c13,-24 -8,-55 -35,-49c-23,4 -30,33 -14,53c17,20 37,19 49,-4zM6643,4598c13,-20 -6,-48 -34,-48c-22,0 -35,36 -18,56c15,18 38,15 52,-8zM6752,4596c7,-13 6,-22 -5,-33c-28,-29 -73,11 -48,41c15,18 41,14 53,-8zM2656,4496c15,-12 17,-18 8,-33c-14,-23 -43,-23 -57,-1c-8,12 -7,21 2,32c16,20 22,20 47,2zM2774,4488c8,-14 7,-21 -6,-34c-30,-30 -75,9 -48,42c16,18 39,15 54,-8zM4976,4496c15,-12 17,-18 8,-33c-14,-23 -43,-23 -57,-1c-8,12 -7,21 2,32c16,20 22,20 47,2zM5086,4496c15,-12 17,-18 8,-33c-14,-23 -43,-23 -57,-1c-8,12 -7,21 2,32c16,20 22,20 47,2zM5196,4496c15,-12 17,-18 8,-33c-14,-23 -43,-23 -57,-1c-8,12 -7,21 2,32c16,20 22,20 47,2zM5308,4498c19,-19 14,-46 -9,-53c-31,-10 -55,16 -40,44c13,24 31,27 49,9zM6298,4501c22,-13 11,-55 -15,-59c-17,-3 -24,3 -29,23c-9,35 15,55 44,36zM6414,4494c12,-12 13,-20 6,-35c-11,-20 -19,-23 -44,-13c-19,7 -21,50 -3,57c20,9 25,8 41,-9zM6524,4494c22,-21 3,-56 -27,-52c-25,3 -34,32 -17,53c16,19 25,19 44,-1zM6641,4489c15,-28 -9,-54 -40,-44c-23,7 -28,34 -9,53c18,18 36,15 49,-9zM6751,4489c9,-17 8,-25 -4,-37c-29,-28 -73,12 -47,43c17,21 37,19 51,-6zM6854,4494c20,-19 20,-28 1,-44c-30,-25 -70,15 -45,45c16,19 25,19 44,-1zM6966,4496c15,-12 17,-18 8,-33c-14,-23 -43,-23 -57,-1c-8,12 -7,21 2,32c16,20 22,20 47,2zM7074,4494c20,-19 20,-28 1,-44c-30,-25 -70,15 -45,45c16,19 25,19 44,-1zM5088,4388c19,-19 14,-46 -8,-53c-22,-7 -50,9 -50,29c0,15 20,36 35,36c6,0 16,-5 23,-12zM5208,4357c-4,-28 -46,-30 -62,-4c-9,15 -7,21 8,32c25,19 58,2 54,-28zM5314,4377c8,-12 7,-21 -6,-33c-22,-22 -48,-11 -48,20c0,37 34,45 54,13zM6305,4365c0,-25 -4,-30 -25,-30c-19,0 -26,6 -28,24c-4,25 13,43 38,38c9,-1 15,-13 15,-32zM6408,4391c8,-4 12,-19 10,-32c-2,-18 -9,-24 -28,-24c-28,0 -39,27 -20,50c14,17 20,18 38,6zM6524,4384c20,-19 5,-54 -24,-54c-23,0 -36,36 -20,55c16,19 25,19 44,-1zM6634,4384c19,-19 20,-26 4,-42c-31,-31 -75,10 -48,43c16,19 25,19 44,-1zM6744,4384c19,-19 20,-26 4,-42c-31,-31 -75,10 -48,43c16,19 25,19 44,-1zM6854,4384c19,-19 20,-26 4,-42c-31,-31 -75,10 -48,43c16,19 25,19 44,-1zM6966,4386c15,-12 17,-18 8,-33c-14,-23 -43,-23 -57,-1c-8,12 -7,21 2,32c16,20 22,20 47,2zM3658,4246c-2,-15 -10,-21 -28,-21c-20,0 -26,6 -28,27c-2,19 2,27 15,30c25,6 45,-11 41,-36zM6298,4281c8,-4 12,-19 10,-32c-2,-18 -9,-24 -28,-24c-28,0 -39,27 -20,50c14,17 20,18 38,6zM6408,4281c8,-4 12,-19 10,-32c-2,-18 -9,-24 -28,-24c-28,0 -39,27 -20,50c14,17 20,18 38,6zM6517,4282c18,-11 19,-43 2,-55c-35,-23 -67,21 -37,51c14,14 19,14 35,4zM6635,4274c18,-18 16,-33 -7,-47c-35,-22 -66,21 -36,51c16,16 23,15 43,-4zM6868,4253c-4,-22 -32,-38 -52,-30c-21,8 -21,43 1,56c22,12 55,-5 51,-26zM6754,4264c8,-21 -11,-44 -36,-44c-21,0 -33,22 -24,45c7,20 52,19 60,-1zM3650,4165c19,-23 8,-50 -20,-50c-19,0 -26,6 -28,24c-5,35 26,53 48,26zM3760,4165c19,-23 8,-50 -20,-50c-19,0 -26,6 -28,24c-5,35 26,53 48,26zM3870,4165c19,-23 8,-50 -20,-50c-19,0 -26,6 -28,24c-5,35 26,53 48,26zM6298,4171c8,-4 12,-19 10,-32c-2,-18 -9,-24 -28,-24c-28,0 -39,27 -20,50c14,17 20,18 38,6zM6408,4171c8,-4 12,-19 10,-32c-2,-18 -9,-24 -28,-24c-28,0 -39,27 -20,50c14,17 20,18 38,6zM6525,4164c18,-18 16,-33 -7,-47c-35,-22 -66,21 -36,51c16,16 23,15 43,-4zM6645,4152c8,-20 -19,-47 -39,-39c-26,10 -32,38 -12,53c21,15 42,9 51,-14zM6741,4170c23,-13 25,-33 4,-50c-33,-27 -74,17 -43,48c15,15 15,15 39,2zM2780,4044c0,-18 -24,-44 -40,-44c-27,0 -37,40 -15,56c17,12 55,4 55,-12zM4098,4031c-2,-20 -8,-26 -28,-26c-30,0 -40,33 -15,51c25,19 47,6 43,-25zM6298,4061c8,-4 12,-19 10,-32c-2,-18 -9,-24 -28,-24c-28,0 -39,27 -20,50c14,17 20,18 38,6zM3655,4030c0,-20 -5,-25 -25,-25c-20,0 -26,6 -28,28c-3,26 -1,28 25,25c22,-2 28,-8 28,-28zM3765,4030c0,-18 -6,-26 -23,-28c-13,-2 -25,3 -28,12c-10,26 4,48 28,44c17,-2 23,-10 23,-28zM3875,4030c0,-18 -6,-26 -23,-28c-13,-2 -25,3 -28,12c-10,26 4,48 28,44c17,-2 23,-10 23,-28zM3985,4030c0,-18 -6,-26 -23,-28c-13,-2 -25,3 -28,12c-10,26 4,48 28,44c17,-2 23,-10 23,-28zM6424,4044c8,-21 -11,-44 -36,-44c-21,0 -33,22 -24,45c7,20 52,19 60,-1zM6533,4041c6,-23 -10,-41 -35,-41c-21,0 -33,22 -24,45c8,22 53,19 59,-4zM6644,4044c8,-21 -11,-44 -36,-44c-21,0 -33,22 -24,45c7,20 52,19 60,-1zM2778,3917c-5,-37 -67,-33 -68,5c0,4 7,14 16,22c21,22 56,3 52,-27zM3650,3945c19,-23 8,-50 -20,-50c-19,0 -26,6 -28,24c-5,35 26,53 48,26zM4098,3921c-2,-20 -8,-26 -28,-26c-16,0 -26,6 -28,18c-5,25 15,46 39,40c15,-4 19,-12 17,-32zM6419,3908c-13,-24 -52,-20 -57,6c-3,11 4,26 14,33c15,11 20,10 35,-3c14,-13 16,-21 8,-36zM6533,3930c6,-23 -15,-43 -40,-38c-24,4 -29,39 -8,54c21,16 41,9 48,-16zM6644,3933c9,-22 -13,-45 -38,-41c-26,4 -33,38 -11,54c20,15 41,9 49,-13zM3765,3920c0,-18 -6,-26 -23,-28c-13,-2 -25,3 -28,12c-10,26 4,48 28,44c17,-2 23,-10 23,-28zM3875,3920c0,-18 -6,-26 -23,-28c-13,-2 -25,3 -28,12c-10,26 4,48 28,44c17,-2 23,-10 23,-28zM3985,3920c0,-18 -6,-26 -23,-28c-13,-2 -25,3 -28,12c-10,26 4,48 28,44c17,-2 23,-10 23,-28zM4205,3920c0,-18 -6,-26 -23,-28c-13,-2 -25,3 -28,12c-10,26 4,48 28,44c17,-2 23,-10 23,-28zM6309,3932c12,-22 -3,-42 -31,-42c-21,0 -33,22 -24,45c8,21 43,19 55,-3zM3655,3810c0,-20 -6,-26 -27,-28c-25,-3 -28,0 -28,28c0,28 3,31 28,28c21,-2 27,-8 27,-28zM3765,3810c0,-18 -6,-26 -23,-28c-13,-2 -25,3 -28,12c-10,26 4,48 28,44c17,-2 23,-10 23,-28zM3875,3810c0,-18 -6,-26 -23,-28c-13,-2 -25,3 -28,12c-10,26 4,48 28,44c17,-2 23,-10 23,-28zM3985,3810c0,-18 -6,-26 -23,-28c-13,-2 -25,3 -28,12c-10,26 4,48 28,44c17,-2 23,-10 23,-28zM4100,3810c0,-25 -4,-30 -25,-30c-27,0 -41,20 -31,45c3,8 17,15 31,15c21,0 25,-5 25,-30zM4205,3810c0,-18 -6,-26 -23,-28c-13,-2 -25,3 -28,12c-10,26 4,48 28,44c17,-2 23,-10 23,-28zM6308,3828c16,-16 -3,-48 -29,-48c-22,0 -34,22 -25,45c6,18 37,20 54,3zM6418,3823c13,-26 4,-43 -24,-43c-26,0 -40,20 -30,45c8,21 43,19 54,-2zM6532,3823c8,-29 -2,-43 -28,-43c-26,0 -40,20 -30,45c8,21 53,19 58,-2zM6643,3828c8,-26 -5,-48 -29,-48c-26,0 -40,20 -30,45c7,18 53,20 59,3zM3655,3700c0,-20 -5,-25 -25,-25c-20,0 -26,6 -28,28c-3,26 -1,28 25,25c22,-2 28,-8 28,-28zM3765,3700c0,-18 -6,-26 -23,-28c-13,-2 -25,3 -28,12c-10,26 4,48 28,44c17,-2 23,-10 23,-28zM3875,3700c0,-18 -6,-26 -23,-28c-13,-2 -25,3 -28,12c-10,26 4,48 28,44c17,-2 23,-10 23,-28zM3985,3700c0,-18 -6,-26 -23,-28c-13,-2 -25,3 -28,12c-10,26 4,48 28,44c17,-2 23,-10 23,-28zM4095,3720c11,-18 -6,-50 -26,-50c-22,0 -34,22 -25,45c6,17 42,20 51,5zM6195,3700c0,-18 -6,-26 -23,-28c-13,-2 -25,3 -28,12c-10,26 4,48 28,44c17,-2 23,-10 23,-28zM6309,3712c12,-22 -3,-42 -31,-42c-21,0 -33,22 -24,45c8,21 43,19 55,-3zM6423,3718c7,-21 -12,-48 -34,-48c-22,0 -34,22 -25,45c7,18 53,20 59,3zM6533,3711c6,-23 -10,-41 -35,-41c-21,0 -33,22 -24,45c8,22 53,19 59,-4zM6639,3716c17,-20 2,-46 -25,-46c-26,0 -40,20 -30,45c7,19 40,20 55,1zM3765,3590c0,-18 -6,-26 -23,-28c-13,-2 -25,3 -28,12c-10,26 4,48 28,44c17,-2 23,-10 23,-28zM3875,3590c0,-18 -6,-26 -23,-28c-13,-2 -25,3 -28,12c-10,26 4,48 28,44c17,-2 23,-10 23,-28zM3985,3590c0,-18 -6,-26 -23,-28c-13,-2 -25,3 -28,12c-10,26 4,48 28,44c17,-2 23,-10 23,-28zM4095,3590c0,-18 -6,-26 -23,-28c-13,-2 -25,3 -28,12c-10,26 4,48 28,44c17,-2 23,-10 23,-28zM6195,3590c0,-16 -6,-26 -19,-28c-25,-5 -39,12 -31,38c10,31 50,24 50,-10zM6308,3603c13,-26 4,-43 -24,-43c-26,0 -40,20 -30,45c8,21 43,19 54,-2zM6417,3609c18,-18 3,-49 -23,-49c-26,0 -40,20 -30,45c6,17 37,20 53,4zM6528,3603c13,-26 4,-43 -24,-43c-26,0 -40,20 -30,45c8,21 43,19 54,-2zM6859,3606c17,-20 2,-46 -25,-46c-26,0 -40,20 -30,45c7,19 40,20 55,1zM6921,3593c-8,-15 -10,-15 -11,-2c0,17 10,32 18,25c2,-3 -1,-13 -7,-23zM3765,3480c0,-18 -6,-26 -23,-28c-13,-2 -25,3 -28,12c-10,26 4,48 28,44c17,-2 23,-10 23,-28zM3875,3480c0,-18 -6,-26 -23,-28c-13,-2 -25,3 -28,12c-10,26 4,48 28,44c17,-2 23,-10 23,-28zM3985,3480c0,-18 -6,-26 -23,-28c-13,-2 -25,3 -28,12c-10,26 4,48 28,44c17,-2 23,-10 23,-28zM6195,3480c0,-18 -6,-26 -23,-28c-13,-2 -25,3 -28,12c-10,26 4,48 28,44c17,-2 23,-10 23,-28zM6308,3478c3,-24 0,-28 -23,-28c-27,0 -41,20 -31,46c10,27 51,13 54,-18zM6418,3478c3,-24 0,-28 -23,-28c-27,0 -41,20 -31,46c10,27 51,13 54,-18zM6525,3480c0,-18 -6,-26 -23,-28c-13,-2 -25,3 -28,12c-10,26 4,48 28,44c17,-2 23,-10 23,-28zM6857,3499c12,-12 6,-39 -11,-51c-25,-17 -61,33 -39,55c10,11 38,8 50,-4zM3768,3374c4,-29 -23,-51 -43,-34c-16,13 -20,42 -8,54c14,14 48,1 51,-20zM3875,3370c0,-18 -6,-26 -23,-28c-13,-2 -25,3 -28,12c-10,26 4,48 28,44c17,-2 23,-10 23,-28zM6198,3369c2,-19 -2,-28 -17,-32c-22,-5 -41,9 -41,33c0,41 53,40 58,-1zM6308,3374c4,-29 -23,-51 -43,-34c-16,13 -20,42 -8,54c14,14 48,1 51,-20zM6419,3383c14,-26 -15,-56 -40,-42c-19,10 -25,39 -12,52c12,13 42,7 52,-10zM6530,3381c14,-28 -13,-55 -41,-41c-19,10 -26,40 -12,53c13,14 43,7 53,-12zM6198,3261c4,-29 -15,-43 -40,-30c-18,10 -24,39 -11,53c15,15 48,1 51,-23zM6308,3261c4,-29 -15,-43 -40,-30c-18,10 -24,39 -11,53c15,15 48,1 51,-23zM6418,3273c13,-26 4,-43 -24,-43c-26,0 -40,20 -30,45c8,21 43,19 54,-2zM6088,3149c4,-30 -22,-46 -44,-28c-15,12 -19,41 -7,53c16,16 48,1 51,-25zM6198,3157c6,-28 -16,-49 -39,-36c-19,10 -25,39 -12,53c13,13 48,1 51,-17zM6308,3154c4,-29 -23,-51 -43,-34c-16,13 -20,42 -8,54c14,14 48,1 51,-20zM6420,3161c7,-15 6,-23 -6,-35c-19,-19 -26,-20 -42,-4c-16,16 -15,45 1,51c24,10 36,7 47,-12zM6088,3047c5,-25 -15,-46 -38,-40c-20,5 -28,42 -13,57c13,13 48,1 51,-17zM6200,3051c13,-25 -11,-51 -40,-44c-19,5 -28,42 -13,56c13,14 43,7 53,-12zM6308,3039c4,-30 -22,-46 -44,-28c-15,12 -19,41 -7,53c16,16 48,1 51,-25zM3106,2938c12,-40 -45,-60 -60,-21c-4,9 -1,22 5,29c17,21 47,17 55,-8zM3105,2829c10,-31 -16,-55 -44,-40c-24,13 -27,31 -9,49c19,19 46,14 53,-9zM3105,2720c7,-23 -10,-50 -31,-50c-20,0 -34,31 -23,52c13,24 46,23 54,-2zM3214,2718c8,-14 7,-21 -6,-34c-30,-30 -75,9 -48,42c16,18 39,15 54,-8zM3103,2608c8,-12 7,-21 -2,-32c-18,-22 -38,-20 -51,5c-22,40 29,66 53,27zM3208,2618c19,-19 14,-46 -8,-53c-40,-13 -67,34 -32,54c22,13 26,13 40,-1zM3328,2598c2,-20 -2,-28 -19,-33c-30,-10 -53,19 -38,47c15,29 53,20 57,-14zM3100,2505c15,-18 7,-43 -16,-52c-24,-9 -46,24 -33,48c12,23 32,24 49,4zM3195,2510c-3,-6 1,-7 9,-4c12,5 16,0 16,-19c0,-32 -35,-46 -57,-24c-12,12 -13,19 -4,36c7,11 19,21 27,21c8,0 12,-4 9,-10zM3314,2514c23,-9 20,-51 -4,-59c-27,-8 -40,1 -40,29c0,34 12,42 44,30zM3208,2398c19,-19 14,-46 -8,-53c-40,-13 -67,34 -32,54c22,13 26,13 40,-1zM3314,2287c23,-17 17,-51 -8,-55c-27,-6 -48,25 -35,49c12,22 19,23 43,6z"></path><path d="M2841,4144c0,-11 3,-14 6,-6c3,7 2,16 -1,19c-3,4 -6,-2 -5,-13z"></path><path d="M2852,3700c0,-14 2,-19 5,-12c2,6 2,18 0,25c-3,6 -5,1 -5,-13z"></path><path d="M6928,6893c7,-3 16,-2 19,1c4,3 -2,6 -13,5c-11,0 -14,-3 -6,-6z"></path></g></g></g></svg>