<svg version="1.1" xmlns="http://www.w3.org/2000/svg" xmlns:xlink="http://www.w3.org/1999/xlink" width="900.000000pt" height="900.000000pt" viewBox="0,0,256,256"><g fill="#000000" fill-rule="nonzero" stroke="none" stroke-width="1" stroke-linecap="butt" stroke-linejoin="miter" stroke-miterlimit="10" stroke-dasharray="" stroke-dashoffset="0" font-family="none" font-weight="none" font-size="none" text-anchor="none" style="mix-blend-mode: normal"><path d="M0,256v-256h256v256z" id="bgRectangle"></path></g><g fill="#61b1fa" fill-rule="nonzero" stroke="none" stroke-width="1" stroke-linecap="butt" stroke-linejoin="miter" stroke-miterlimit="10" stroke-dasharray="" stroke-dashoffset="0" font-family="none" font-weight="none" font-size="none" text-anchor="none" style="mix-blend-mode: normal"><g transform="translate(-2.84444,-1.70667) scale(0.28444,0.28444)"><g transform="translate(0,900) scale(0.1,-0.1)"><path d="M207,8873c-4,-3 -7,-2001 -7,-4440v-4433h1235h1235v4440v4440h-1228c-676,0 -1232,-3 -1235,-7z"></path><path d="M6303,8868c-10,-13 -62,-101 -175,-298c-86,-149 -565,-978 -608,-1050c-113,-193 -208,-358 -510,-880c-183,-316 -373,-645 -422,-730c-50,-85 -125,-213 -166,-285c-41,-71 -121,-209 -177,-305c-349,-601 -529,-916 -532,-934c-3,-14 41,-92 133,-236c75,-118 260,-406 409,-640c149,-234 335,-524 412,-645c77,-121 229,-359 338,-530c109,-170 296,-463 415,-650c119,-187 310,-486 425,-665c114,-179 307,-481 429,-672l221,-348h1253h1252v200c0,110 -3,200 -8,200c-4,0 -12,9 -17,20c-11,22 -20,36 -400,620c-134,206 -361,555 -503,775c-143,220 -327,504 -409,630c-450,691 -1193,1836 -1218,1877l-30,48h-378c-326,0 -378,2 -383,15c-4,9 151,289 378,687c212,370 737,1289 1167,2042c431,752 793,1387 806,1410c12,22 62,108 109,190c47,82 86,153 86,158c0,4 -425,8 -944,8c-743,0 -946,-3 -953,-12z"></path></g></g></g></svg>