<svg version="1.1" xmlns="http://www.w3.org/2000/svg" xmlns:xlink="http://www.w3.org/1999/xlink" width="227.000000pt" height="222.000000pt" viewBox="0,0,256,250.35938"><g fill="#0c83e6" fill-rule="nonzero" stroke="none" stroke-width="1" stroke-linecap="butt" stroke-linejoin="miter" stroke-miterlimit="10" stroke-dasharray="" stroke-dashoffset="0" font-family="none" font-weight="none" font-size="none" text-anchor="none" style="mix-blend-mode: normal"><g transform="translate(0.00363,0.14814) scale(1.12775,1.12775)"><g transform="translate(0,222) scale(0.1,-0.1)"><path d="M926,2164c-192,-38 -386,-136 -535,-270c-79,-71 -182,-210 -235,-316c-82,-165 -125,-394 -105,-563c36,-320 177,-573 423,-756c367,-274 887,-287 1273,-32c70,45 206,175 262,246c56,74 120,190 152,278c68,186 82,432 36,610c-53,202 -144,363 -284,502c-164,163 -357,265 -570,302c-105,18 -323,18 -417,-1zM820,1110c0,-528 -2,-960 -4,-960c-2,0 -37,13 -76,29c-248,101 -456,309 -560,558c-87,209 -94,475 -18,698c67,195 215,388 387,504c64,44 236,130 259,131c9,0 12,-199 12,-960zM1920,1520v-140h-385h-385v-120v-120h200h200v-130v-130h-200h-199l-3,-142l-3,-143l-126,-3l-126,-3l-7,526c-3,289 -4,530 -1,536c4,5 208,9 521,9h514zM1920,1255v-85h-150h-150v85v85h150h150zM1920,875v-275h-150h-150v275v275h150h150z"></path><path d="M348,1698c-32,-34 -58,-64 -58,-67c1,-3 29,-28 63,-54l61,-48l17,23c17,22 17,24 -1,43c-18,20 -18,21 1,45c45,57 44,101 -3,113c-19,5 -34,-5 -80,-55zM410,1677c0,-7 -6,-22 -14,-32c-12,-17 -16,-17 -30,-6c-15,13 -15,15 0,32c20,22 44,25 44,6z"></path><path d="M504,1716c-18,-14 -18,-16 -2,-32c17,-17 18,-17 38,1c15,14 17,21 9,32c-14,17 -21,16 -45,-1z"></path><path d="M503,1602c-20,-12 -43,-78 -43,-121c0,-31 -4,-41 -21,-46c-27,-9 -59,-63 -59,-101c0,-17 6,-52 14,-77l14,-47h-33c-21,0 -35,-6 -39,-17c-11,-29 14,-118 49,-177l34,-57l-20,-20c-27,-27 -18,-55 32,-99c36,-33 39,-40 39,-88c0,-49 2,-54 31,-70c56,-30 89,-64 115,-115c32,-61 28,-80 -32,-146l-46,-51h50h50l60,82c33,46 69,92 81,102c16,14 21,31 21,65v46l-32,-39l-32,-39l-8,29c-11,38 0,86 23,102c24,16 25,78 3,110c-14,21 -13,26 11,76c24,49 25,57 14,99c-8,34 -8,54 1,81c13,41 5,98 -20,142c-16,29 -16,31 1,53c26,32 25,101 -2,135c-41,53 -119,25 -103,-37c6,-26 -31,-77 -56,-77c-9,0 -8,6 4,19c13,14 16,26 10,43c-4,13 -7,30 -6,38c2,9 -9,26 -23,38l-26,23l20,27c32,46 36,77 12,101c-21,21 -65,27 -88,13zM528,1337c12,5 10,-2 -9,-28c-20,-29 -25,-48 -27,-126c-2,-51 0,-93 5,-93c4,0 16,12 25,28c10,15 18,21 18,12c0,-8 -9,-28 -20,-45c-26,-39 -26,-99 0,-218c12,-50 23,-101 26,-112c13,-42 -14,1 -32,54c-14,39 -29,60 -54,77c-38,26 -36,30 6,14c25,-10 26,-9 20,12c-4,13 -10,52 -13,88c-5,53 -11,71 -35,99c-30,34 -32,57 -3,27c9,-9 20,-16 24,-16c5,0 11,39 14,88c6,77 4,90 -13,115c-12,15 -16,27 -11,27c5,0 13,-5 16,-10c11,-18 23,-1 32,43l8,42l3,-42c3,-34 6,-41 20,-36zM700,1172c0,-26 4,-41 10,-37c15,9 12,-7 -5,-29c-9,-12 -15,-42 -15,-74v-55l22,19l21,19l-17,-26c-11,-17 -19,-58 -23,-113c-3,-47 -10,-86 -16,-86c-6,0 -7,25 -2,64c4,41 2,72 -5,85c-8,16 -8,21 1,21c7,0 10,26 8,78c-1,42 2,86 6,96c5,11 4,42 -2,69c-9,43 -8,48 3,32c8,-10 14,-38 14,-63zM612,1213c23,-20 23,-47 -1,-99c-18,-39 -18,-41 0,-52c29,-18 33,-71 10,-138c-18,-54 -18,-65 -7,-99c8,-22 11,-46 8,-55c-4,-9 -9,-1 -13,22c-3,20 -11,44 -19,52c-9,12 -10,23 -1,43c34,87 32,173 -4,173c-19,0 -19,10 -1,35c24,35 29,81 11,99c-9,9 -24,16 -33,16c-15,0 -15,2 -2,10c21,14 31,12 52,-7zM648,708c7,-7 12,-18 12,-25c0,-8 10,-27 22,-43c17,-24 19,-34 11,-52c-10,-23 -10,-23 -32,12c-11,19 -21,43 -21,52c0,9 -4,19 -9,22c-5,3 -11,15 -14,26c-6,22 12,27 31,8z"></path><path d="M316,1434c-10,-25 -7,-31 14,-37c22,-6 46,25 35,43c-10,16 -42,12 -49,-6z"></path><path d="M294,1329c-8,-49 -20,-55 -80,-40c-53,13 -49,15 -58,-21c-6,-25 -4,-26 70,-43c42,-9 77,-15 78,-13c2,1 10,34 19,73c11,52 12,72 4,77c-21,14 -27,8 -33,-33z"></path><path d="M250,1085c0,-20 5,-25 25,-25c20,0 25,5 25,25c0,20 -5,25 -25,25c-20,0 -25,-5 -25,-25z"></path><path d="M217,992c-66,-15 -68,-16 -62,-41c8,-33 6,-32 45,-21c19,5 36,7 39,5c2,-3 -10,-21 -28,-39c-29,-30 -33,-39 -27,-70c4,-20 10,-36 14,-36c4,0 40,7 80,17c54,12 71,20 67,31c-3,7 -5,18 -5,24c0,7 -17,8 -47,3l-47,-7l37,45c30,37 35,49 28,72c-4,16 -11,30 -17,31c-5,1 -40,-5 -77,-14z"></path><path d="M371,721c-15,-10 -6,-51 12,-51c28,1 39,17 28,39c-13,23 -19,25 -40,12z"></path><path d="M366,584c-45,-35 -47,-37 -30,-55c23,-25 30,-24 71,11c40,36 58,38 74,8c11,-20 8,-26 -31,-59c-38,-33 -41,-38 -29,-58c19,-29 28,-27 77,20c48,47 52,73 20,115c-51,66 -84,70 -152,18z"></path></g></g></g></svg>