<svg version="1.1" xmlns="http://www.w3.org/2000/svg" xmlns:xlink="http://www.w3.org/1999/xlink" width="1000.000000pt" height="1000.000000pt" viewBox="0,0,256,256"><g fill="#079118" fill-rule="nonzero" stroke="none" stroke-width="1" stroke-linecap="butt" stroke-linejoin="miter" stroke-miterlimit="10" stroke-dasharray="" stroke-dashoffset="0" font-family="none" font-weight="none" font-size="none" text-anchor="none" style="mix-blend-mode: normal"><g transform="translate(-5.30179,26.83786) scale(0.256,0.256)"><g transform="translate(0,1000) scale(0.1,-0.1)"><path d="M5463,9156c-200,-38 -374,-128 -428,-220c-42,-71 -30,-177 26,-241c61,-70 220,-124 360,-125c123,0 314,44 483,112c169,68 314,82 420,41c120,-47 295,-198 382,-329c113,-170 149,-307 149,-569c0,-171 -2,-184 -28,-260c-84,-239 -243,-441 -679,-862c-192,-186 -277,-313 -295,-443l-8,-55l-90,-7c-108,-8 -185,-33 -279,-92c-238,-148 -505,-587 -581,-952c-57,-276 -37,-518 62,-769c19,-49 51,-119 71,-154l35,-63l-94,76c-224,183 -453,241 -623,157c-106,-52 -192,-166 -221,-293l-11,-50l-43,138c-111,355 -250,630 -392,773c-51,51 -146,110 -208,127c-38,12 -80,15 -142,12c-76,-4 -97,-9 -164,-42c-83,-41 -180,-125 -252,-218c-101,-132 -222,-149 -338,-46c-87,76 -119,181 -119,393c0,141 2,160 39,305c51,208 54,307 10,395c-47,94 -130,127 -220,86c-89,-40 -144,-128 -166,-264c-17,-109 -6,-457 20,-602c69,-398 206,-688 414,-881c87,-81 172,-119 262,-119c80,1 114,15 181,77l44,41l-15,-35c-93,-223 40,-525 286,-649c77,-38 93,-42 204,-52l119,-10l75,-79c179,-191 443,-336 698,-384c66,-12 115,-15 198,-10c61,4 119,7 130,8c11,1 64,-11 117,-26c150,-41 250,-57 418,-63c320,-12 558,39 983,208c446,178 689,330 958,598c230,230 334,380 393,568c51,163 58,393 17,554l-17,69l20,-13c38,-25 86,-97 103,-155c33,-111 12,-366 -38,-464c-11,-21 -19,-40 -19,-43c0,-53 231,303 294,453c56,133 106,370 106,500c0,81 1,83 41,134c135,171 212,468 188,728c-23,258 -72,390 -161,436c-35,18 -128,18 -198,-1l-55,-14l48,40c99,85 174,217 203,360c29,146 1,280 -88,417c-100,153 -269,251 -436,252h-43l8,78c13,129 8,339 -11,417c-46,191 -147,295 -258,265c-41,-12 -85,-57 -94,-98c-4,-15 -9,-31 -11,-35c-3,-5 -24,39 -48,97c-83,204 -150,307 -296,457c-206,210 -515,347 -854,379c-60,5 -141,17 -180,25c-101,22 -275,27 -362,11zM5615,9133c-101,-21 -187,-68 -211,-114c-8,-16 -14,-46 -14,-67c0,-119 154,-188 366,-163c51,6 105,16 120,21c15,6 28,9 31,7c5,-6 -153,-77 -231,-103c-108,-37 -207,-54 -314,-54c-203,0 -322,71 -322,193c0,43 5,53 47,98c99,106 310,187 488,187c33,0 51,-2 40,-5zM5770,9108c-30,-5 -82,-13 -115,-18c-120,-19 -215,-91 -215,-164c0,-24 -3,-27 -10,-16c-5,8 -10,32 -10,52c0,87 149,156 340,156l65,-1zM5873,9103c-7,-2 -19,-2 -25,0c-7,3 -2,5 12,5c14,0 19,-2 13,-5zM6251,9051c63,-16 152,-45 198,-65c89,-38 226,-115 218,-123c-3,-2 -22,0 -44,6c-21,6 -86,11 -144,11c-157,0 -185,-9 -586,-174c-207,-86 -409,-125 -551,-106c-87,11 -174,39 -208,65c-17,15 -16,15 11,2c95,-45 307,-48 460,-8c73,20 121,39 392,160c51,22 158,63 239,90c80,28 148,52 150,54c5,4 -53,28 -201,83c-112,41 -83,43 66,5zM6045,9050c24,-6 16,-8 -35,-9c-36,-1 -83,-6 -105,-12c-47,-13 -105,-54 -105,-75c0,-21 -17,-17 -23,6c-17,67 146,121 268,90zM6757,8478c75,-81 151,-225 182,-350c32,-124 46,-308 32,-415c-35,-274 -160,-465 -580,-883c-136,-135 -268,-271 -294,-303c-55,-68 -99,-150 -122,-232c-43,-145 15,-299 143,-385l47,-32l-35,7c-149,30 -260,164 -260,313c0,76 37,177 96,266c31,47 126,148 281,300c128,126 266,267 306,313c270,315 358,542 328,849c-24,240 -81,398 -198,542l-34,42h38c31,0 45,-7 70,-32zM6977,8489c24,-11 58,-39 77,-60c39,-46 106,-207 144,-347c23,-87 26,-115 26,-267c0,-196 -20,-314 -80,-469c-115,-301 -318,-528 -709,-796c-240,-164 -310,-233 -337,-333c-10,-38 -9,-51 6,-91c24,-63 74,-96 156,-103l61,-6l-7,-61c-4,-34 -9,-65 -12,-70c-7,-12 -77,1 -133,25c-58,25 -133,102 -161,167c-27,59 -29,155 -5,232c36,118 78,171 362,455c337,337 451,476 544,661c70,142 86,214 85,399c0,290 -49,444 -210,663l-16,22h83c63,0 93,-5 126,-21zM7411,8276c48,-33 92,-105 121,-196c21,-67 23,-94 23,-255c-1,-181 -7,-232 -46,-377c-21,-76 -39,-102 -39,-55c-1,37 -37,105 -109,206c-86,119 -98,151 -105,271c-3,52 -10,139 -16,193c-12,105 -3,165 28,201c38,42 92,46 143,12zM7708,7525c137,-32 235,-102 316,-223c38,-58 86,-158 86,-180c0,-4 -17,18 -37,48c-108,160 -275,249 -469,250h-72l15,60l15,60h42c22,0 69,-7 104,-15zM7714,7385c153,-32 266,-113 354,-254c41,-66 47,-83 50,-141c9,-160 -77,-339 -221,-458c-134,-109 -335,-173 -495,-156c-59,6 -68,11 -125,61c-69,60 -179,118 -245,129c-42,7 -92,36 -92,55c0,5 24,25 54,45l54,35l44,-44c56,-55 118,-79 266,-102c130,-19 208,-12 299,30c65,29 141,104 173,170c36,73 35,189 -3,262c-44,86 -129,133 -239,133c-63,0 -106,-19 -145,-63c-60,-68 -54,-160 15,-216c20,-17 43,-31 51,-31c22,0 -38,-60 -76,-76c-50,-22 -113,-17 -170,11c-82,41 -83,46 -23,112c110,120 183,240 247,408c19,49 37,93 40,98c7,12 113,8 187,-8zM7202,7281c-6,-20 -34,-76 -63,-126c-141,-248 -320,-423 -679,-668c-189,-129 -279,-210 -315,-288l-25,-54v38c0,89 85,181 305,330c205,139 322,235 440,359c137,143 239,296 299,447c17,44 17,44 33,21c13,-18 14,-29 5,-59zM7298,7126c6,-115 -20,-168 -137,-285c-112,-112 -198,-173 -374,-266c-71,-37 -155,-87 -187,-112c-102,-76 -199,-216 -251,-362l-23,-63l-55,6c-68,8 -115,34 -119,66c-13,87 81,192 312,350c90,61 211,149 268,195c201,161 377,373 467,563l35,72l30,-47c25,-39 31,-59 34,-117zM7766,7058c60,-65 80,-176 49,-269c-36,-106 -154,-195 -285,-213l-45,-6l40,13c111,37 200,108 234,186c45,107 36,232 -23,299c-35,40 -7,31 30,-10zM7728,7031c24,-40 27,-56 27,-131c0,-97 -16,-141 -74,-198c-44,-42 -135,-87 -210,-103c-79,-16 -225,-7 -282,19c-42,18 -119,85 -119,102c0,23 36,15 87,-20c187,-128 438,-67 526,128c27,61 29,181 4,229c-28,53 8,30 41,-26zM6930,6595c11,-13 7,-15 -23,-15c-19,0 -44,-3 -54,-6c-10,-3 -4,3 12,14c37,25 49,26 65,7zM6985,6550c72,-12 161,-44 195,-70l25,-20l-40,16c-148,61 -307,59 -435,-6c-202,-101 -356,-340 -390,-602l-9,-73l4,96c7,183 87,362 225,501c86,87 183,141 280,157c76,12 77,12 145,1zM7041,6490c92,-17 194,-74 273,-154c61,-60 76,-82 96,-141c33,-93 33,-230 1,-320c-48,-132 -156,-271 -276,-354l-50,-35l71,75c163,174 217,338 151,465c-50,99 -117,146 -236,166c-222,38 -442,-101 -516,-326c-61,-185 -17,-380 103,-457l47,-30l-40,7c-92,16 -182,67 -232,131c-115,147 -88,475 56,696c144,219 338,317 552,277zM8150,6472c71,-52 117,-219 126,-457c5,-126 3,-166 -14,-250c-25,-122 -72,-254 -117,-330c-38,-62 -112,-155 -125,-155c-4,0 10,35 31,78c21,42 48,113 59,157c38,145 37,388 -2,518c-7,23 -30,59 -50,79c-31,31 -45,38 -78,38c-83,0 -160,-65 -268,-225c-214,-316 -495,-513 -787,-549l-50,-7l65,24c139,51 243,119 343,227c93,100 177,272 177,362c0,27 2,28 48,28c103,0 197,71 345,263c52,67 121,146 152,176c50,48 60,53 88,47c18,-3 43,-14 57,-24zM7968,6453c-19,-21 -75,-89 -123,-152c-145,-188 -228,-256 -323,-267c-49,-6 -58,2 -65,62l-6,51l50,6c83,10 159,59 289,187c109,108 164,149 200,150c8,0 0,-15 -22,-37zM7758,6345c-129,-128 -190,-165 -269,-165c-68,0 -73,24 -9,45c57,19 116,59 182,123c32,31 74,57 125,79c43,18 80,32 83,32c3,0 -47,-51 -112,-114zM5848,6159c2,-14 -9,-17 -60,-21c-219,-15 -473,-248 -652,-598c-77,-152 -130,-310 -158,-473c-29,-170 -22,-424 16,-573c37,-148 86,-267 172,-412c12,-19 6,-16 -20,12c-48,52 -119,176 -161,279c-123,301 -131,603 -24,940c66,208 229,489 375,647c132,142 294,222 444,217c51,-2 65,-5 68,-18zM7125,6155c44,-12 143,-80 132,-91c-2,-2 -22,6 -44,17c-64,32 -161,44 -240,31c-201,-34 -362,-196 -397,-401c-15,-91 -26,-100 -26,-20c0,140 48,258 141,351c117,118 271,157 434,113zM5873,6066c32,-69 98,-141 157,-171c48,-24 118,-41 212,-50l56,-6l7,-62c10,-89 40,-178 79,-235l33,-49l-46,-11c-244,-56 -453,-245 -605,-547c-60,-119 -94,-211 -117,-315c-15,-65 -18,-72 -14,-32c16,152 124,402 242,556c37,49 111,128 163,175c145,130 174,185 135,261c-39,75 -123,92 -219,44c-162,-81 -363,-297 -464,-499c-75,-152 -131,-368 -133,-522l-2,-88l-7,70c-18,163 25,385 109,561c91,191 187,309 371,460c146,119 177,151 185,198c21,107 -126,206 -261,176c-109,-25 -195,-82 -325,-216c-173,-180 -290,-406 -357,-689c-24,-99 -26,-130 -27,-305c0,-184 2,-201 29,-300c63,-231 163,-429 280,-560l41,-44l-42,32c-54,42 -97,91 -148,172c-214,332 -275,706 -180,1107c45,188 117,350 234,526c173,258 376,411 553,416c35,1 38,-1 61,-53zM7106,6069c129,-62 166,-196 95,-343c-25,-52 -29,-57 -30,-33c-2,50 -31,96 -80,125c-38,23 -58,27 -116,27c-144,-1 -256,-107 -272,-259c-7,-70 15,-134 60,-172l32,-27l-35,8c-52,11 -94,32 -123,63c-85,91 -50,342 69,480c105,124 291,184 400,131zM2430,5955c18,-9 38,-35 55,-69c43,-87 38,-176 -22,-406c-52,-198 -41,-464 25,-598c40,-83 148,-169 217,-173c14,0 11,-3 -10,-10c-88,-26 -211,50 -266,164c-40,85 -52,176 -46,346c4,122 10,166 37,266c40,152 50,281 26,352c-17,52 -76,123 -101,123c-8,0 -17,5 -20,10c-10,16 72,12 105,-5zM5908,5934c53,-26 82,-63 82,-104c0,-20 -1,-20 -32,-3c-23,12 -56,18 -109,18c-67,0 -83,-4 -151,-38c-96,-47 -247,-188 -337,-314c-156,-218 -255,-507 -277,-803c-7,-93 -9,-100 -15,-60c-36,222 32,557 167,820c116,227 315,436 467,491c75,27 142,24 205,-7zM2360,5911c14,-10 36,-38 50,-62c37,-66 35,-183 -8,-352c-42,-165 -56,-278 -49,-397c11,-163 46,-264 119,-339c130,-132 280,-116 433,48c33,36 90,95 127,132c126,127 275,174 423,134c65,-17 166,-74 195,-110c8,-9 -12,1 -44,23c-197,138 -367,73 -566,-219c-130,-189 -210,-244 -355,-244c-95,0 -157,25 -247,99c-68,57 -117,148 -149,281c-18,74 -22,118 -22,245v155l56,172c60,179 68,234 42,283c-40,78 -156,63 -205,-27l-21,-38l6,35c18,103 71,194 118,203c32,6 69,-3 97,-22zM7969,5840c10,-5 24,-23 31,-39c15,-36 19,-185 7,-255l-9,-50l-18,53c-40,121 -103,160 -214,138l-39,-8l49,57c84,98 144,131 193,104zM6110,5615c44,-23 37,-35 -20,-35c-81,0 -162,-48 -304,-181c-184,-172 -306,-399 -351,-654c-31,-174 -18,-410 30,-546c9,-23 13,-44 11,-46c-4,-4 -46,112 -73,202c-14,47 -18,94 -17,220c1,144 4,171 31,275c73,274 197,473 412,657c82,69 178,123 223,123c16,0 42,-7 58,-15zM2291,5610c13,-8 19,-21 19,-46c0,-34 0,-34 -25,-18c-29,19 -57,12 -85,-23c-24,-31 -26,-17 -5,35c24,57 54,74 96,52zM2154,5414c32,-403 131,-689 296,-855c140,-141 290,-219 422,-219c78,0 163,29 362,124c88,42 183,83 212,92c58,17 149,21 204,9c67,-14 150,-67 213,-136c86,-92 144,-194 232,-403c41,-98 87,-199 102,-225c91,-155 247,-232 417,-207c43,7 106,46 106,67c0,5 -21,19 -47,32c-38,18 -49,28 -51,50c-7,58 50,80 122,49c58,-26 79,-59 78,-126c0,-67 -20,-113 -72,-170c-141,-153 -489,-117 -676,70c-78,77 -130,164 -287,471c-140,274 -185,337 -278,388c-48,27 -63,30 -139,30c-128,0 -172,-25 -319,-174c-104,-107 -122,-121 -171,-135c-108,-31 -217,11 -335,129c-76,76 -174,213 -223,311c-104,206 -177,530 -187,827c-5,153 7,154 19,1zM2289,5505c4,-21 -39,-165 -49,-165c-8,0 -40,90 -40,113c0,10 7,32 16,48c12,24 21,30 42,27c17,-2 28,-10 31,-23zM7841,5401c31,-12 66,-33 79,-46l24,-26l-39,18c-30,13 -67,17 -150,17c-133,0 -201,-21 -370,-116c-190,-107 -222,-121 -305,-126c-61,-3 -93,1 -170,23c-160,47 -284,25 -434,-76c-202,-135 -373,-429 -408,-701c-11,-89 -4,-228 17,-328c4,-21 3,-20 -9,5c-50,108 -64,360 -27,505c27,106 133,322 202,414c95,124 228,216 364,251c83,21 110,19 243,-16c174,-46 230,-34 445,90c128,74 178,96 272,122c86,24 186,20 266,-10zM2238,5160v-115l-18,90c-10,50 -21,122 -24,160l-6,70l24,-45c23,-41 25,-56 24,-160zM7891,5325c23,-9 51,-23 61,-32c34,-30 52,-118 51,-248c-1,-152 -20,-243 -79,-365c-43,-89 -144,-264 -149,-258c-2,2 8,46 22,98c21,80 24,112 21,202c-4,95 -8,113 -37,172c-65,132 -157,182 -319,173c-87,-4 -109,-9 -212,-52c-179,-73 -244,-87 -375,-80c-136,8 -226,-9 -324,-60c-252,-133 -394,-488 -315,-792c55,-215 221,-408 408,-475l51,-19l-68,6c-84,7 -207,51 -280,99c-79,52 -154,137 -187,209c-54,120 -64,177 -65,362c0,167 1,172 33,264c116,334 313,548 559,608c72,18 116,14 262,-27c41,-11 91,-20 112,-20c62,0 158,36 284,108c149,84 228,119 308,137c72,17 174,12 238,-10zM6330,5310l25,-20h-44c-61,0 -121,-32 -198,-103c-217,-204 -366,-481 -393,-732l-7,-70l-2,67c-4,227 138,523 359,748c120,122 201,156 260,110zM3367,5016c-97,-35 -160,-101 -254,-269c-68,-122 -137,-198 -218,-241c-56,-29 -67,-31 -160,-31c-88,0 -107,3 -157,27c-71,33 -75,43 -8,17c33,-12 76,-19 123,-19c138,0 246,75 365,254c108,163 241,277 321,276c22,-1 20,-3 -12,-14zM3570,4973c29,-15 83,-55 119,-90l66,-63l-65,27c-55,23 -80,28 -160,28c-87,0 -101,-3 -161,-32c-80,-40 -149,-105 -216,-203c-68,-102 -157,-182 -230,-210c-48,-18 -72,-21 -138,-17c-44,2 -94,11 -111,18c-29,13 -26,14 60,14c86,0 97,2 168,38c97,47 153,108 236,255c110,194 192,262 318,262c45,0 73,-7 114,-27zM7382,4964c89,-46 211,-297 225,-463c6,-74 -18,-187 -60,-283l-24,-53l5,77c6,96 -20,187 -78,277c-108,167 -257,245 -465,245c-111,0 -176,-15 -281,-64c-136,-65 -248,-204 -289,-360c-19,-71 -19,-208 0,-288c35,-148 132,-288 248,-356c60,-35 165,-65 234,-67c75,-1 1,-18 -83,-18c-140,-2 -243,41 -355,146c-139,131 -176,235 -166,457c14,308 173,560 382,604c28,6 115,13 195,16c201,8 270,29 354,105c22,21 48,41 56,44c19,7 68,-2 102,-19zM7172,4711c121,-39 234,-145 296,-279c29,-63 42,-206 24,-252c-9,-21 -11,-17 -11,31c-2,120 -69,260 -172,358c-59,56 -126,92 -219,116c-95,25 -260,17 -357,-17c-40,-14 -73,-24 -73,-22c0,10 110,58 174,75c93,25 241,21 338,-10zM7063,4665c108,-23 172,-57 246,-133c137,-140 179,-288 124,-447c-25,-74 -103,-149 -178,-171c-114,-32 -259,7 -307,84c-26,42 -32,142 -10,164c9,9 12,9 12,-5c0,-9 13,-31 29,-49c28,-31 33,-33 98,-33c57,0 76,4 105,24c78,54 104,137 73,230c-22,67 -55,105 -119,139c-45,24 -62,27 -146,27c-87,0 -100,-3 -148,-30c-107,-58 -173,-162 -187,-291c-13,-113 28,-218 120,-310c76,-76 151,-107 262,-108l74,-1l-33,-29c-54,-47 -106,-66 -180,-66c-263,-1 -471,237 -471,540c0,197 80,333 243,414c128,62 259,80 393,51zM3717,4615c31,-14 76,-41 100,-61c44,-36 117,-131 148,-194c21,-42 21,-41 -42,37c-170,212 -344,253 -599,138l-79,-35l35,29c140,118 300,149 437,86zM5627,4378c-2,-29 -3,-6 -3,52c0,58 1,81 3,53c2,-29 2,-77 0,-105zM4673,4391c155,-54 255,-128 557,-411c107,-101 229,-208 270,-239c201,-150 442,-227 750,-239c195,-7 159,-20 -80,-29c-129,-4 -187,-2 -262,11c-298,51 -510,174 -896,520c-263,236 -316,278 -391,314c-62,30 -88,36 -156,40c-70,4 -90,1 -144,-21c-41,-16 -58,-20 -50,-10c20,23 99,66 148,80c60,17 180,9 254,-16zM3505,4320c28,-13 82,-56 121,-94c67,-67 78,-85 189,-305c144,-289 185,-352 299,-466c140,-139 284,-204 451,-205c39,0 94,6 124,14c38,10 54,10 56,2c27,-87 39,-107 84,-138l23,-16l-51,-26c-122,-63 -267,-69 -455,-22c-173,44 -313,111 -455,216c-161,120 -262,241 -367,443c-72,138 -134,216 -195,247c-70,36 -157,21 -192,-34c-27,-41 -40,-109 -29,-150c6,-20 9,-36 6,-36c-11,0 -66,128 -79,183c-13,57 -13,71 0,122c33,124 123,233 228,274c71,29 173,25 242,-9zM4535,4326c106,-28 143,-55 405,-290c366,-330 529,-442 762,-524c140,-50 243,-66 418,-66c178,1 268,14 481,75c147,41 192,47 92,11c-255,-90 -342,-105 -603,-106c-294,-1 -418,26 -642,140c-133,69 -216,129 -418,308c-185,162 -243,196 -338,196c-150,0 -252,-105 -252,-259c0,-71 30,-134 84,-173l41,-31l-55,7c-77,10 -171,56 -225,112c-29,29 -64,85 -95,148c-58,117 -64,172 -30,270c26,76 52,110 107,143c87,51 177,64 268,39zM5637,4273c-3,-10 -5,-4 -5,12c0,17 2,24 5,18c2,-7 2,-21 0,-30zM5647,4228c-3,-8 -6,-5 -6,6c-1,11 2,17 5,13c3,-3 4,-12 1,-19zM7270,3831c-211,-235 -529,-458 -805,-565c-211,-81 -396,-111 -630,-103c-192,7 -299,28 -498,97c-195,68 -245,77 -302,56c-53,-21 -85,-57 -85,-97c0,-32 27,-45 80,-37l30,5l-22,-24c-52,-56 -163,-49 -218,13c-84,96 -54,252 64,331c109,74 182,70 409,-23c303,-124 416,-156 610,-174c238,-22 493,26 782,146c158,67 375,211 565,378c41,36 76,65 78,66c2,0 -25,-31 -58,-69zM3397,3752c11,-6 36,-29 56,-52c38,-42 50,-65 20,-37c-35,30 -70,31 -98,2c-32,-31 -28,-65 13,-107c30,-32 24,-35 -21,-12c-70,36 -107,88 -107,152c0,73 59,96 137,54zM3502,3599c33,-33 57,-63 54,-66c-10,-10 -104,9 -134,27c-53,32 -56,100 -6,100c20,0 43,-16 86,-61zM5110,3290c0,-6 -7,-24 -15,-40c-12,-24 -24,-31 -58,-37c-52,-8 -52,-8 -52,19c0,14 12,31 34,45c35,24 91,31 91,13z"></path><path d="M7324,8225c-36,-24 -47,-68 -42,-160c4,-81 7,-90 68,-207c35,-68 71,-150 80,-182c9,-33 21,-61 27,-63c5,-2 23,43 39,99c24,87 28,121 28,223c0,102 -4,129 -24,180c-42,107 -115,153 -176,110z"></path><path d="M3411,8349c-130,-14 -208,-36 -306,-84c-164,-80 -281,-198 -360,-360c-62,-129 -79,-205 -78,-350c0,-137 21,-232 73,-336c102,-203 255,-337 470,-411c89,-30 103,-32 235,-33c161,0 223,13 350,74c151,72 288,206 364,358c42,84 98,273 112,378c43,328 -141,631 -450,738c-74,26 -102,31 -206,33c-66,1 -158,-2 -204,-7zM3756,8320c201,-51 358,-182 443,-372c40,-89 54,-159 54,-263c0,-247 -133,-464 -353,-579c-186,-98 -392,-99 -590,-4c-70,33 -100,56 -170,127c-135,136 -190,269 -190,460c0,109 18,188 65,286c131,272 448,419 741,345zM3095,8138c-62,-69 -134,-207 -156,-298c-8,-31 -13,-103 -13,-165c1,-89 6,-125 27,-190c61,-186 183,-326 358,-410c107,-51 200,-69 328,-62c164,8 293,61 423,173c30,27 19,13 -27,-32c-192,-189 -453,-248 -707,-160c-103,36 -173,82 -260,168c-207,207 -256,515 -126,787c30,64 58,103 120,167c44,46 83,84 85,84c3,0 -21,-28 -52,-62z"></path><path d="M3402,6049c-125,-62 -149,-227 -47,-325c139,-134 361,-25 343,168c-14,137 -169,220 -296,157zM3577,6031c105,-48 133,-190 55,-283c-67,-80 -208,-78 -277,4c-74,88 -46,226 57,277c53,26 110,26 165,2z"></path><path d="M3433,5981c-64,-40 -84,-112 -49,-179c46,-88 186,-81 230,13c23,49 14,96 -27,142c-42,45 -105,55 -154,24zM3570,5895c26,-32 -13,-81 -47,-59c-35,22 -23,74 17,74c10,0 23,-7 30,-15z"></path><path d="M2792,5664c-40,-27 -18,-104 29,-104c29,0 59,31 59,60c0,28 -30,60 -55,60c-6,0 -21,-7 -33,-16zM2859,5626c5,-27 -26,-48 -50,-35c-19,10 -25,39 -12,53c14,14 58,1 62,-18z"></path><path d="M4625,5561c-35,-16 -66,-58 -72,-98c-6,-52 28,-103 82,-122c115,-39 203,105 117,191c-31,32 -91,45 -127,29zM4728,5527c8,-6 21,-27 29,-44c11,-28 11,-38 -1,-67c-17,-40 -42,-56 -86,-56c-45,0 -70,16 -86,57c-14,31 -13,38 3,71c10,20 29,43 43,50c27,14 75,9 98,-11z"></path><path d="M4620,5500c-27,-27 -26,-71 3,-98c30,-28 68,-28 95,1c44,46 14,117 -48,117c-17,0 -39,-9 -50,-20z"></path><path d="M4053,5371c-200,-51 -259,-300 -103,-434c120,-102 308,-64 383,77c30,57 30,165 0,221c-55,105 -174,163 -280,136zM4209,5330c85,-43 142,-151 126,-237c-12,-65 -54,-131 -98,-155c-16,-8 -15,-5 4,21c34,46 38,126 7,171c-40,59 -84,82 -149,78c-36,-3 -66,-12 -86,-26c-65,-46 -83,-149 -38,-216c19,-28 21,-34 7,-27c-46,25 -89,96 -98,165c-12,87 43,183 131,229c44,23 146,22 194,-3zM4062,5168c-21,-21 -14,-66 13,-84c52,-34 112,15 87,71c-15,32 -2,32 37,0c79,-67 57,-190 -40,-229c-142,-57 -255,130 -138,228c31,26 65,38 41,14zM4128,5161c8,-4 12,-19 10,-32c-4,-33 -53,-40 -63,-9c-11,36 22,61 53,41z"></path><path d="M2703,5331c-46,-22 -78,-64 -88,-118c-8,-43 26,-117 68,-147c39,-29 125,-29 163,0c51,38 69,71 69,129c0,114 -109,184 -212,136zM2829,5306c83,-43 87,-169 7,-221c-32,-21 -95,-21 -134,-1c-82,42 -82,177 0,222c31,18 93,17 127,0z"></path><path d="M4613,5014c-15,-24 -15,-29 -2,-53c28,-50 109,-34 109,23c0,55 -76,76 -107,30z"></path><path d="M4353,4765c-50,-35 -46,-123 7,-150c44,-23 78,-19 111,14c17,18 29,40 29,56c0,33 -24,81 -45,89c-29,11 -80,6 -102,-9z"></path></g></g></g></svg>